%TF.GenerationSoftware,KiCad,Pcbnew,6.0.11-2627ca5db0~126~ubuntu20.04.1*%
%TF.CreationDate,2023-08-16T23:13:59-05:00*%
%TF.ProjectId,runLimiter,72756e4c-696d-4697-9465-722e6b696361,01*%
%TF.SameCoordinates,Original*%
%TF.FileFunction,Legend,Top*%
%TF.FilePolarity,Positive*%
%FSLAX46Y46*%
G04 Gerber Fmt 4.6, Leading zero omitted, Abs format (unit mm)*
G04 Created by KiCad (PCBNEW 6.0.11-2627ca5db0~126~ubuntu20.04.1) date 2023-08-16 23:13:59*
%MOMM*%
%LPD*%
G01*
G04 APERTURE LIST*
%TA.AperFunction,Profile*%
%ADD10C,0.100000*%
%TD*%
%ADD11C,0.100000*%
%ADD12C,0.300000*%
%ADD13C,0.200000*%
%ADD14C,0.150000*%
%ADD15C,0.120000*%
%ADD16C,0.254000*%
%ADD17C,0.152400*%
%ADD18C,6.400000*%
%ADD19C,1.600000*%
%ADD20O,1.600000X1.600000*%
%ADD21R,1.700000X1.700000*%
%ADD22O,1.700000X1.700000*%
%ADD23R,2.200000X2.200000*%
%ADD24O,2.200000X2.200000*%
%ADD25C,3.000000*%
%ADD26C,2.500000*%
%ADD27R,1.600000X1.600000*%
%ADD28R,1.050000X1.500000*%
%ADD29O,1.050000X1.500000*%
%ADD30R,1.905000X2.000000*%
%ADD31O,1.905000X2.000000*%
%ADD32R,1.800000X1.800000*%
%ADD33C,1.800000*%
%ADD34C,2.000000*%
%ADD35R,1.727200X1.727200*%
%ADD36O,1.727200X1.727200*%
G04 APERTURE END LIST*
D10*
X0Y0D02*
X70000000Y0D01*
X70000000Y0D02*
X70000000Y-50000000D01*
X70000000Y-50000000D02*
X0Y-50000000D01*
X0Y-50000000D02*
X0Y0D01*
D11*
X53690476Y-37952380D02*
X53690476Y-36952380D01*
X54261904Y-37952380D01*
X54261904Y-36952380D01*
X54928571Y-36952380D02*
X55119047Y-36952380D01*
X55214285Y-37000000D01*
X55309523Y-37095238D01*
X55357142Y-37285714D01*
X55357142Y-37619047D01*
X55309523Y-37809523D01*
X55214285Y-37904761D01*
X55119047Y-37952380D01*
X54928571Y-37952380D01*
X54833333Y-37904761D01*
X54738095Y-37809523D01*
X54690476Y-37619047D01*
X54690476Y-37285714D01*
X54738095Y-37095238D01*
X54833333Y-37000000D01*
X54928571Y-36952380D01*
D12*
X47428571Y-17607142D02*
X48571428Y-17607142D01*
X48000000Y-18178571D02*
X48000000Y-17035714D01*
X3928571Y-15607142D02*
X5071428Y-15607142D01*
D13*
X41750000Y-2556071D02*
X41250000Y-1841785D01*
X40892857Y-2556071D02*
X40892857Y-1056071D01*
X41464285Y-1056071D01*
X41607142Y-1127500D01*
X41678571Y-1198928D01*
X41750000Y-1341785D01*
X41750000Y-1556071D01*
X41678571Y-1698928D01*
X41607142Y-1770357D01*
X41464285Y-1841785D01*
X40892857Y-1841785D01*
X43035714Y-1556071D02*
X43035714Y-2556071D01*
X42392857Y-1556071D02*
X42392857Y-2341785D01*
X42464285Y-2484642D01*
X42607142Y-2556071D01*
X42821428Y-2556071D01*
X42964285Y-2484642D01*
X43035714Y-2413214D01*
X43750000Y-1556071D02*
X43750000Y-2556071D01*
X43750000Y-1698928D02*
X43821428Y-1627500D01*
X43964285Y-1556071D01*
X44178571Y-1556071D01*
X44321428Y-1627500D01*
X44392857Y-1770357D01*
X44392857Y-2556071D01*
X44892857Y-1556071D02*
X45464285Y-1556071D01*
X45107142Y-1056071D02*
X45107142Y-2341785D01*
X45178571Y-2484642D01*
X45321428Y-2556071D01*
X45464285Y-2556071D01*
X45964285Y-2556071D02*
X45964285Y-1556071D01*
X45964285Y-1056071D02*
X45892857Y-1127500D01*
X45964285Y-1198928D01*
X46035714Y-1127500D01*
X45964285Y-1056071D01*
X45964285Y-1198928D01*
X46678571Y-2556071D02*
X46678571Y-1556071D01*
X46678571Y-1698928D02*
X46750000Y-1627500D01*
X46892857Y-1556071D01*
X47107142Y-1556071D01*
X47250000Y-1627500D01*
X47321428Y-1770357D01*
X47321428Y-2556071D01*
X47321428Y-1770357D02*
X47392857Y-1627500D01*
X47535714Y-1556071D01*
X47750000Y-1556071D01*
X47892857Y-1627500D01*
X47964285Y-1770357D01*
X47964285Y-2556071D01*
X49250000Y-2484642D02*
X49107142Y-2556071D01*
X48821428Y-2556071D01*
X48678571Y-2484642D01*
X48607142Y-2341785D01*
X48607142Y-1770357D01*
X48678571Y-1627500D01*
X48821428Y-1556071D01*
X49107142Y-1556071D01*
X49250000Y-1627500D01*
X49321428Y-1770357D01*
X49321428Y-1913214D01*
X48607142Y-2056071D01*
X51821428Y-2556071D02*
X51107142Y-2556071D01*
X51107142Y-1056071D01*
X52321428Y-2556071D02*
X52321428Y-1556071D01*
X52321428Y-1056071D02*
X52250000Y-1127500D01*
X52321428Y-1198928D01*
X52392857Y-1127500D01*
X52321428Y-1056071D01*
X52321428Y-1198928D01*
X53035714Y-2556071D02*
X53035714Y-1556071D01*
X53035714Y-1698928D02*
X53107142Y-1627500D01*
X53250000Y-1556071D01*
X53464285Y-1556071D01*
X53607142Y-1627500D01*
X53678571Y-1770357D01*
X53678571Y-2556071D01*
X53678571Y-1770357D02*
X53750000Y-1627500D01*
X53892857Y-1556071D01*
X54107142Y-1556071D01*
X54250000Y-1627500D01*
X54321428Y-1770357D01*
X54321428Y-2556071D01*
X55035714Y-2556071D02*
X55035714Y-1556071D01*
X55035714Y-1056071D02*
X54964285Y-1127500D01*
X55035714Y-1198928D01*
X55107142Y-1127500D01*
X55035714Y-1056071D01*
X55035714Y-1198928D01*
X55535714Y-1556071D02*
X56107142Y-1556071D01*
X55750000Y-1056071D02*
X55750000Y-2341785D01*
X55821428Y-2484642D01*
X55964285Y-2556071D01*
X56107142Y-2556071D01*
X57178571Y-2484642D02*
X57035714Y-2556071D01*
X56750000Y-2556071D01*
X56607142Y-2484642D01*
X56535714Y-2341785D01*
X56535714Y-1770357D01*
X56607142Y-1627500D01*
X56750000Y-1556071D01*
X57035714Y-1556071D01*
X57178571Y-1627500D01*
X57250000Y-1770357D01*
X57250000Y-1913214D01*
X56535714Y-2056071D01*
X57892857Y-2556071D02*
X57892857Y-1556071D01*
X57892857Y-1841785D02*
X57964285Y-1698928D01*
X58035714Y-1627500D01*
X58178571Y-1556071D01*
X58321428Y-1556071D01*
X41000000Y-4971071D02*
X41000000Y-3471071D01*
X41357142Y-3471071D01*
X41571428Y-3542500D01*
X41714285Y-3685357D01*
X41785714Y-3828214D01*
X41857142Y-4113928D01*
X41857142Y-4328214D01*
X41785714Y-4613928D01*
X41714285Y-4756785D01*
X41571428Y-4899642D01*
X41357142Y-4971071D01*
X41000000Y-4971071D01*
X43142857Y-4971071D02*
X43142857Y-4185357D01*
X43071428Y-4042500D01*
X42928571Y-3971071D01*
X42642857Y-3971071D01*
X42500000Y-4042500D01*
X43142857Y-4899642D02*
X43000000Y-4971071D01*
X42642857Y-4971071D01*
X42500000Y-4899642D01*
X42428571Y-4756785D01*
X42428571Y-4613928D01*
X42500000Y-4471071D01*
X42642857Y-4399642D01*
X43000000Y-4399642D01*
X43142857Y-4328214D01*
X43714285Y-3971071D02*
X44071428Y-4971071D01*
X44428571Y-3971071D01*
X45000000Y-4971071D02*
X45000000Y-3971071D01*
X45000000Y-3471071D02*
X44928571Y-3542500D01*
X45000000Y-3613928D01*
X45071428Y-3542500D01*
X45000000Y-3471071D01*
X45000000Y-3613928D01*
X46357142Y-4971071D02*
X46357142Y-3471071D01*
X46357142Y-4899642D02*
X46214285Y-4971071D01*
X45928571Y-4971071D01*
X45785714Y-4899642D01*
X45714285Y-4828214D01*
X45642857Y-4685357D01*
X45642857Y-4256785D01*
X45714285Y-4113928D01*
X45785714Y-4042500D01*
X45928571Y-3971071D01*
X46214285Y-3971071D01*
X46357142Y-4042500D01*
X48214285Y-4185357D02*
X48714285Y-4185357D01*
X48928571Y-4971071D02*
X48214285Y-4971071D01*
X48214285Y-3471071D01*
X48928571Y-3471071D01*
X49571428Y-4828214D02*
X49642857Y-4899642D01*
X49571428Y-4971071D01*
X49500000Y-4899642D01*
X49571428Y-4828214D01*
X49571428Y-4971071D01*
X51428571Y-4971071D02*
X51428571Y-3471071D01*
X52000000Y-3471071D01*
X52142857Y-3542500D01*
X52214285Y-3613928D01*
X52285714Y-3756785D01*
X52285714Y-3971071D01*
X52214285Y-4113928D01*
X52142857Y-4185357D01*
X52000000Y-4256785D01*
X51428571Y-4256785D01*
X53142857Y-4971071D02*
X53000000Y-4899642D01*
X52928571Y-4828214D01*
X52857142Y-4685357D01*
X52857142Y-4256785D01*
X52928571Y-4113928D01*
X53000000Y-4042500D01*
X53142857Y-3971071D01*
X53357142Y-3971071D01*
X53500000Y-4042500D01*
X53571428Y-4113928D01*
X53642857Y-4256785D01*
X53642857Y-4685357D01*
X53571428Y-4828214D01*
X53500000Y-4899642D01*
X53357142Y-4971071D01*
X53142857Y-4971071D01*
X54142857Y-3971071D02*
X54428571Y-4971071D01*
X54714285Y-4256785D01*
X55000000Y-4971071D01*
X55285714Y-3971071D01*
X56428571Y-4899642D02*
X56285714Y-4971071D01*
X56000000Y-4971071D01*
X55857142Y-4899642D01*
X55785714Y-4756785D01*
X55785714Y-4185357D01*
X55857142Y-4042500D01*
X56000000Y-3971071D01*
X56285714Y-3971071D01*
X56428571Y-4042500D01*
X56500000Y-4185357D01*
X56500000Y-4328214D01*
X55785714Y-4471071D01*
X57357142Y-4971071D02*
X57214285Y-4899642D01*
X57142857Y-4756785D01*
X57142857Y-3471071D01*
X58142857Y-4971071D02*
X58000000Y-4899642D01*
X57928571Y-4756785D01*
X57928571Y-3471071D01*
X45178571Y-5886071D02*
X45678571Y-7386071D01*
X46178571Y-5886071D01*
X47250000Y-7314642D02*
X47107142Y-7386071D01*
X46821428Y-7386071D01*
X46678571Y-7314642D01*
X46607142Y-7171785D01*
X46607142Y-6600357D01*
X46678571Y-6457500D01*
X46821428Y-6386071D01*
X47107142Y-6386071D01*
X47250000Y-6457500D01*
X47321428Y-6600357D01*
X47321428Y-6743214D01*
X46607142Y-6886071D01*
X47964285Y-7386071D02*
X47964285Y-6386071D01*
X47964285Y-6671785D02*
X48035714Y-6528928D01*
X48107142Y-6457500D01*
X48250000Y-6386071D01*
X48392857Y-6386071D01*
X48892857Y-7243214D02*
X48964285Y-7314642D01*
X48892857Y-7386071D01*
X48821428Y-7314642D01*
X48892857Y-7243214D01*
X48892857Y-7386071D01*
X50607142Y-5886071D02*
X51535714Y-5886071D01*
X51035714Y-6457500D01*
X51250000Y-6457500D01*
X51392857Y-6528928D01*
X51464285Y-6600357D01*
X51535714Y-6743214D01*
X51535714Y-7100357D01*
X51464285Y-7243214D01*
X51392857Y-7314642D01*
X51250000Y-7386071D01*
X50821428Y-7386071D01*
X50678571Y-7314642D01*
X50607142Y-7243214D01*
X52178571Y-7243214D02*
X52250000Y-7314642D01*
X52178571Y-7386071D01*
X52107142Y-7314642D01*
X52178571Y-7243214D01*
X52178571Y-7386071D01*
X53678571Y-7386071D02*
X52821428Y-7386071D01*
X53250000Y-7386071D02*
X53250000Y-5886071D01*
X53107142Y-6100357D01*
X52964285Y-6243214D01*
X52821428Y-6314642D01*
X42857142Y-8301071D02*
X43000000Y-8301071D01*
X43142857Y-8372500D01*
X43214285Y-8443928D01*
X43285714Y-8586785D01*
X43357142Y-8872500D01*
X43357142Y-9229642D01*
X43285714Y-9515357D01*
X43214285Y-9658214D01*
X43142857Y-9729642D01*
X43000000Y-9801071D01*
X42857142Y-9801071D01*
X42714285Y-9729642D01*
X42642857Y-9658214D01*
X42571428Y-9515357D01*
X42500000Y-9229642D01*
X42500000Y-8872500D01*
X42571428Y-8586785D01*
X42642857Y-8443928D01*
X42714285Y-8372500D01*
X42857142Y-8301071D01*
X44214285Y-8943928D02*
X44071428Y-8872500D01*
X44000000Y-8801071D01*
X43928571Y-8658214D01*
X43928571Y-8586785D01*
X44000000Y-8443928D01*
X44071428Y-8372500D01*
X44214285Y-8301071D01*
X44500000Y-8301071D01*
X44642857Y-8372500D01*
X44714285Y-8443928D01*
X44785714Y-8586785D01*
X44785714Y-8658214D01*
X44714285Y-8801071D01*
X44642857Y-8872500D01*
X44500000Y-8943928D01*
X44214285Y-8943928D01*
X44071428Y-9015357D01*
X44000000Y-9086785D01*
X43928571Y-9229642D01*
X43928571Y-9515357D01*
X44000000Y-9658214D01*
X44071428Y-9729642D01*
X44214285Y-9801071D01*
X44500000Y-9801071D01*
X44642857Y-9729642D01*
X44714285Y-9658214D01*
X44785714Y-9515357D01*
X44785714Y-9229642D01*
X44714285Y-9086785D01*
X44642857Y-9015357D01*
X44500000Y-8943928D01*
X46500000Y-8229642D02*
X45214285Y-10158214D01*
X47785714Y-9801071D02*
X46928571Y-9801071D01*
X47357142Y-9801071D02*
X47357142Y-8301071D01*
X47214285Y-8515357D01*
X47071428Y-8658214D01*
X46928571Y-8729642D01*
X49071428Y-8301071D02*
X48785714Y-8301071D01*
X48642857Y-8372500D01*
X48571428Y-8443928D01*
X48428571Y-8658214D01*
X48357142Y-8943928D01*
X48357142Y-9515357D01*
X48428571Y-9658214D01*
X48500000Y-9729642D01*
X48642857Y-9801071D01*
X48928571Y-9801071D01*
X49071428Y-9729642D01*
X49142857Y-9658214D01*
X49214285Y-9515357D01*
X49214285Y-9158214D01*
X49142857Y-9015357D01*
X49071428Y-8943928D01*
X48928571Y-8872500D01*
X48642857Y-8872500D01*
X48500000Y-8943928D01*
X48428571Y-9015357D01*
X48357142Y-9158214D01*
X50928571Y-8229642D02*
X49642857Y-10158214D01*
X51357142Y-8443928D02*
X51428571Y-8372500D01*
X51571428Y-8301071D01*
X51928571Y-8301071D01*
X52071428Y-8372500D01*
X52142857Y-8443928D01*
X52214285Y-8586785D01*
X52214285Y-8729642D01*
X52142857Y-8943928D01*
X51285714Y-9801071D01*
X52214285Y-9801071D01*
X53142857Y-8301071D02*
X53285714Y-8301071D01*
X53428571Y-8372500D01*
X53500000Y-8443928D01*
X53571428Y-8586785D01*
X53642857Y-8872500D01*
X53642857Y-9229642D01*
X53571428Y-9515357D01*
X53500000Y-9658214D01*
X53428571Y-9729642D01*
X53285714Y-9801071D01*
X53142857Y-9801071D01*
X53000000Y-9729642D01*
X52928571Y-9658214D01*
X52857142Y-9515357D01*
X52785714Y-9229642D01*
X52785714Y-8872500D01*
X52857142Y-8586785D01*
X52928571Y-8443928D01*
X53000000Y-8372500D01*
X53142857Y-8301071D01*
X54214285Y-8443928D02*
X54285714Y-8372500D01*
X54428571Y-8301071D01*
X54785714Y-8301071D01*
X54928571Y-8372500D01*
X55000000Y-8443928D01*
X55071428Y-8586785D01*
X55071428Y-8729642D01*
X55000000Y-8943928D01*
X54142857Y-9801071D01*
X55071428Y-9801071D01*
X55571428Y-8301071D02*
X56500000Y-8301071D01*
X56000000Y-8872500D01*
X56214285Y-8872500D01*
X56357142Y-8943928D01*
X56428571Y-9015357D01*
X56500000Y-9158214D01*
X56500000Y-9515357D01*
X56428571Y-9658214D01*
X56357142Y-9729642D01*
X56214285Y-9801071D01*
X55785714Y-9801071D01*
X55642857Y-9729642D01*
X55571428Y-9658214D01*
D11*
X58809523Y-37857142D02*
X58761904Y-37904761D01*
X58619047Y-37952380D01*
X58523809Y-37952380D01*
X58380952Y-37904761D01*
X58285714Y-37809523D01*
X58238095Y-37714285D01*
X58190476Y-37523809D01*
X58190476Y-37380952D01*
X58238095Y-37190476D01*
X58285714Y-37095238D01*
X58380952Y-37000000D01*
X58523809Y-36952380D01*
X58619047Y-36952380D01*
X58761904Y-37000000D01*
X58809523Y-37047619D01*
X61214285Y-37952380D02*
X61214285Y-36952380D01*
X61785714Y-37952380D01*
X61785714Y-36952380D01*
X62833333Y-37857142D02*
X62785714Y-37904761D01*
X62642857Y-37952380D01*
X62547619Y-37952380D01*
X62404761Y-37904761D01*
X62309523Y-37809523D01*
X62261904Y-37714285D01*
X62214285Y-37523809D01*
X62214285Y-37380952D01*
X62261904Y-37190476D01*
X62309523Y-37095238D01*
X62404761Y-37000000D01*
X62547619Y-36952380D01*
X62642857Y-36952380D01*
X62785714Y-37000000D01*
X62833333Y-37047619D01*
D12*
X3928571Y-12607142D02*
X5071428Y-12607142D01*
X4500000Y-13178571D02*
X4500000Y-12035714D01*
X47428571Y-20607142D02*
X48571428Y-20607142D01*
D14*
%TO.C,R3*%
X26913333Y-36082380D02*
X26580000Y-35606190D01*
X26341904Y-36082380D02*
X26341904Y-35082380D01*
X26722857Y-35082380D01*
X26818095Y-35130000D01*
X26865714Y-35177619D01*
X26913333Y-35272857D01*
X26913333Y-35415714D01*
X26865714Y-35510952D01*
X26818095Y-35558571D01*
X26722857Y-35606190D01*
X26341904Y-35606190D01*
X27246666Y-35082380D02*
X27865714Y-35082380D01*
X27532380Y-35463333D01*
X27675238Y-35463333D01*
X27770476Y-35510952D01*
X27818095Y-35558571D01*
X27865714Y-35653809D01*
X27865714Y-35891904D01*
X27818095Y-35987142D01*
X27770476Y-36034761D01*
X27675238Y-36082380D01*
X27389523Y-36082380D01*
X27294285Y-36034761D01*
X27246666Y-35987142D01*
%TO.C,J3*%
X63666666Y-39452380D02*
X63666666Y-40166666D01*
X63619047Y-40309523D01*
X63523809Y-40404761D01*
X63380952Y-40452380D01*
X63285714Y-40452380D01*
X64047619Y-39452380D02*
X64666666Y-39452380D01*
X64333333Y-39833333D01*
X64476190Y-39833333D01*
X64571428Y-39880952D01*
X64619047Y-39928571D01*
X64666666Y-40023809D01*
X64666666Y-40261904D01*
X64619047Y-40357142D01*
X64571428Y-40404761D01*
X64476190Y-40452380D01*
X64190476Y-40452380D01*
X64095238Y-40404761D01*
X64047619Y-40357142D01*
X53904761Y-43452380D02*
X53904761Y-42452380D01*
X54142857Y-42452380D01*
X54285714Y-42500000D01*
X54380952Y-42595238D01*
X54428571Y-42690476D01*
X54476190Y-42880952D01*
X54476190Y-43023809D01*
X54428571Y-43214285D01*
X54380952Y-43309523D01*
X54285714Y-43404761D01*
X54142857Y-43452380D01*
X53904761Y-43452380D01*
X54904761Y-43452380D02*
X54904761Y-42785714D01*
X54904761Y-42976190D02*
X54952380Y-42880952D01*
X55000000Y-42833333D01*
X55095238Y-42785714D01*
X55190476Y-42785714D01*
X55428571Y-42785714D02*
X55666666Y-43452380D01*
X55904761Y-42785714D02*
X55666666Y-43452380D01*
X55571428Y-43690476D01*
X55523809Y-43738095D01*
X55428571Y-43785714D01*
X57619047Y-43357142D02*
X57571428Y-43404761D01*
X57428571Y-43452380D01*
X57333333Y-43452380D01*
X57190476Y-43404761D01*
X57095238Y-43309523D01*
X57047619Y-43214285D01*
X57000000Y-43023809D01*
X57000000Y-42880952D01*
X57047619Y-42690476D01*
X57095238Y-42595238D01*
X57190476Y-42500000D01*
X57333333Y-42452380D01*
X57428571Y-42452380D01*
X57571428Y-42500000D01*
X57619047Y-42547619D01*
X58190476Y-43452380D02*
X58095238Y-43404761D01*
X58047619Y-43357142D01*
X58000000Y-43261904D01*
X58000000Y-42976190D01*
X58047619Y-42880952D01*
X58095238Y-42833333D01*
X58190476Y-42785714D01*
X58333333Y-42785714D01*
X58428571Y-42833333D01*
X58476190Y-42880952D01*
X58523809Y-42976190D01*
X58523809Y-43261904D01*
X58476190Y-43357142D01*
X58428571Y-43404761D01*
X58333333Y-43452380D01*
X58190476Y-43452380D01*
X58952380Y-42785714D02*
X58952380Y-43452380D01*
X58952380Y-42880952D02*
X59000000Y-42833333D01*
X59095238Y-42785714D01*
X59238095Y-42785714D01*
X59333333Y-42833333D01*
X59380952Y-42928571D01*
X59380952Y-43452380D01*
X59714285Y-42785714D02*
X60095238Y-42785714D01*
X59857142Y-42452380D02*
X59857142Y-43309523D01*
X59904761Y-43404761D01*
X60000000Y-43452380D01*
X60095238Y-43452380D01*
X60857142Y-43452380D02*
X60857142Y-42928571D01*
X60809523Y-42833333D01*
X60714285Y-42785714D01*
X60523809Y-42785714D01*
X60428571Y-42833333D01*
X60857142Y-43404761D02*
X60761904Y-43452380D01*
X60523809Y-43452380D01*
X60428571Y-43404761D01*
X60380952Y-43309523D01*
X60380952Y-43214285D01*
X60428571Y-43119047D01*
X60523809Y-43071428D01*
X60761904Y-43071428D01*
X60857142Y-43023809D01*
X61761904Y-43404761D02*
X61666666Y-43452380D01*
X61476190Y-43452380D01*
X61380952Y-43404761D01*
X61333333Y-43357142D01*
X61285714Y-43261904D01*
X61285714Y-42976190D01*
X61333333Y-42880952D01*
X61380952Y-42833333D01*
X61476190Y-42785714D01*
X61666666Y-42785714D01*
X61761904Y-42833333D01*
X62047619Y-42785714D02*
X62428571Y-42785714D01*
X62190476Y-42452380D02*
X62190476Y-43309523D01*
X62238095Y-43404761D01*
X62333333Y-43452380D01*
X62428571Y-43452380D01*
X62714285Y-43404761D02*
X62809523Y-43452380D01*
X63000000Y-43452380D01*
X63095238Y-43404761D01*
X63142857Y-43309523D01*
X63142857Y-43261904D01*
X63095238Y-43166666D01*
X63000000Y-43119047D01*
X62857142Y-43119047D01*
X62761904Y-43071428D01*
X62714285Y-42976190D01*
X62714285Y-42928571D01*
X62761904Y-42833333D01*
X62857142Y-42785714D01*
X63000000Y-42785714D01*
X63095238Y-42833333D01*
%TO.C,D2*%
X49681904Y-48922380D02*
X49681904Y-47922380D01*
X49920000Y-47922380D01*
X50062857Y-47970000D01*
X50158095Y-48065238D01*
X50205714Y-48160476D01*
X50253333Y-48350952D01*
X50253333Y-48493809D01*
X50205714Y-48684285D01*
X50158095Y-48779523D01*
X50062857Y-48874761D01*
X49920000Y-48922380D01*
X49681904Y-48922380D01*
X50634285Y-48017619D02*
X50681904Y-47970000D01*
X50777142Y-47922380D01*
X51015238Y-47922380D01*
X51110476Y-47970000D01*
X51158095Y-48017619D01*
X51205714Y-48112857D01*
X51205714Y-48208095D01*
X51158095Y-48350952D01*
X50586666Y-48922380D01*
X51205714Y-48922380D01*
%TO.C,K1*%
X57761904Y-13952380D02*
X57761904Y-12952380D01*
X58333333Y-13952380D02*
X57904761Y-13380952D01*
X58333333Y-12952380D02*
X57761904Y-13523809D01*
X59285714Y-13952380D02*
X58714285Y-13952380D01*
X59000000Y-13952380D02*
X59000000Y-12952380D01*
X58904761Y-13095238D01*
X58809523Y-13190476D01*
X58714285Y-13238095D01*
X61785714Y-25452380D02*
X61452380Y-24976190D01*
X61214285Y-25452380D02*
X61214285Y-24452380D01*
X61595238Y-24452380D01*
X61690476Y-24500000D01*
X61738095Y-24547619D01*
X61785714Y-24642857D01*
X61785714Y-24785714D01*
X61738095Y-24880952D01*
X61690476Y-24928571D01*
X61595238Y-24976190D01*
X61214285Y-24976190D01*
X62595238Y-25404761D02*
X62500000Y-25452380D01*
X62309523Y-25452380D01*
X62214285Y-25404761D01*
X62166666Y-25309523D01*
X62166666Y-24928571D01*
X62214285Y-24833333D01*
X62309523Y-24785714D01*
X62500000Y-24785714D01*
X62595238Y-24833333D01*
X62642857Y-24928571D01*
X62642857Y-25023809D01*
X62166666Y-25119047D01*
X63214285Y-25452380D02*
X63119047Y-25404761D01*
X63071428Y-25309523D01*
X63071428Y-24452380D01*
X64023809Y-25452380D02*
X64023809Y-24928571D01*
X63976190Y-24833333D01*
X63880952Y-24785714D01*
X63690476Y-24785714D01*
X63595238Y-24833333D01*
X64023809Y-25404761D02*
X63928571Y-25452380D01*
X63690476Y-25452380D01*
X63595238Y-25404761D01*
X63547619Y-25309523D01*
X63547619Y-25214285D01*
X63595238Y-25119047D01*
X63690476Y-25071428D01*
X63928571Y-25071428D01*
X64023809Y-25023809D01*
X64404761Y-24785714D02*
X64642857Y-25452380D01*
X64880952Y-24785714D02*
X64642857Y-25452380D01*
X64547619Y-25690476D01*
X64500000Y-25738095D01*
X64404761Y-25785714D01*
%TO.C,J1*%
X7166666Y-17452380D02*
X7166666Y-18166666D01*
X7119047Y-18309523D01*
X7023809Y-18404761D01*
X6880952Y-18452380D01*
X6785714Y-18452380D01*
X8166666Y-18452380D02*
X7595238Y-18452380D01*
X7880952Y-18452380D02*
X7880952Y-17452380D01*
X7785714Y-17595238D01*
X7690476Y-17690476D01*
X7595238Y-17738095D01*
X3452380Y-8952380D02*
X2976190Y-8952380D01*
X2928571Y-9428571D01*
X2976190Y-9380952D01*
X3071428Y-9333333D01*
X3309523Y-9333333D01*
X3404761Y-9380952D01*
X3452380Y-9428571D01*
X3500000Y-9523809D01*
X3500000Y-9761904D01*
X3452380Y-9857142D01*
X3404761Y-9904761D01*
X3309523Y-9952380D01*
X3071428Y-9952380D01*
X2976190Y-9904761D01*
X2928571Y-9857142D01*
X3928571Y-9571428D02*
X4690476Y-9571428D01*
X5690476Y-9952380D02*
X5119047Y-9952380D01*
X5404761Y-9952380D02*
X5404761Y-8952380D01*
X5309523Y-9095238D01*
X5214285Y-9190476D01*
X5119047Y-9238095D01*
X6023809Y-8952380D02*
X6642857Y-8952380D01*
X6309523Y-9333333D01*
X6452380Y-9333333D01*
X6547619Y-9380952D01*
X6595238Y-9428571D01*
X6642857Y-9523809D01*
X6642857Y-9761904D01*
X6595238Y-9857142D01*
X6547619Y-9904761D01*
X6452380Y-9952380D01*
X6166666Y-9952380D01*
X6071428Y-9904761D01*
X6023809Y-9857142D01*
X7690476Y-8952380D02*
X8023809Y-9952380D01*
X8357142Y-8952380D01*
X8833333Y-9952380D02*
X8738095Y-9904761D01*
X8690476Y-9857142D01*
X8642857Y-9761904D01*
X8642857Y-9476190D01*
X8690476Y-9380952D01*
X8738095Y-9333333D01*
X8833333Y-9285714D01*
X8976190Y-9285714D01*
X9071428Y-9333333D01*
X9119047Y-9380952D01*
X9166666Y-9476190D01*
X9166666Y-9761904D01*
X9119047Y-9857142D01*
X9071428Y-9904761D01*
X8976190Y-9952380D01*
X8833333Y-9952380D01*
X9738095Y-9952380D02*
X9642857Y-9904761D01*
X9595238Y-9809523D01*
X9595238Y-8952380D01*
X9976190Y-9285714D02*
X10357142Y-9285714D01*
X10119047Y-8952380D02*
X10119047Y-9809523D01*
X10166666Y-9904761D01*
X10261904Y-9952380D01*
X10357142Y-9952380D01*
X10642857Y-9904761D02*
X10738095Y-9952380D01*
X10928571Y-9952380D01*
X11023809Y-9904761D01*
X11071428Y-9809523D01*
X11071428Y-9761904D01*
X11023809Y-9666666D01*
X10928571Y-9619047D01*
X10785714Y-9619047D01*
X10690476Y-9571428D01*
X10642857Y-9476190D01*
X10642857Y-9428571D01*
X10690476Y-9333333D01*
X10785714Y-9285714D01*
X10928571Y-9285714D01*
X11023809Y-9333333D01*
%TO.C,J2*%
X45166666Y-22452380D02*
X45166666Y-23166666D01*
X45119047Y-23309523D01*
X45023809Y-23404761D01*
X44880952Y-23452380D01*
X44785714Y-23452380D01*
X45595238Y-22547619D02*
X45642857Y-22500000D01*
X45738095Y-22452380D01*
X45976190Y-22452380D01*
X46071428Y-22500000D01*
X46119047Y-22547619D01*
X46166666Y-22642857D01*
X46166666Y-22738095D01*
X46119047Y-22880952D01*
X45547619Y-23452380D01*
X46166666Y-23452380D01*
X43976190Y-13952380D02*
X44309523Y-14952380D01*
X44642857Y-13952380D01*
X45119047Y-14952380D02*
X45023809Y-14904761D01*
X44976190Y-14857142D01*
X44928571Y-14761904D01*
X44928571Y-14476190D01*
X44976190Y-14380952D01*
X45023809Y-14333333D01*
X45119047Y-14285714D01*
X45261904Y-14285714D01*
X45357142Y-14333333D01*
X45404761Y-14380952D01*
X45452380Y-14476190D01*
X45452380Y-14761904D01*
X45404761Y-14857142D01*
X45357142Y-14904761D01*
X45261904Y-14952380D01*
X45119047Y-14952380D01*
X46309523Y-14285714D02*
X46309523Y-14952380D01*
X45880952Y-14285714D02*
X45880952Y-14809523D01*
X45928571Y-14904761D01*
X46023809Y-14952380D01*
X46166666Y-14952380D01*
X46261904Y-14904761D01*
X46309523Y-14857142D01*
X46642857Y-14285714D02*
X47023809Y-14285714D01*
X46785714Y-13952380D02*
X46785714Y-14809523D01*
X46833333Y-14904761D01*
X46928571Y-14952380D01*
X47023809Y-14952380D01*
%TO.C,C2*%
X17333333Y-25857142D02*
X17285714Y-25904761D01*
X17142857Y-25952380D01*
X17047619Y-25952380D01*
X16904761Y-25904761D01*
X16809523Y-25809523D01*
X16761904Y-25714285D01*
X16714285Y-25523809D01*
X16714285Y-25380952D01*
X16761904Y-25190476D01*
X16809523Y-25095238D01*
X16904761Y-25000000D01*
X17047619Y-24952380D01*
X17142857Y-24952380D01*
X17285714Y-25000000D01*
X17333333Y-25047619D01*
X17714285Y-25047619D02*
X17761904Y-25000000D01*
X17857142Y-24952380D01*
X18095238Y-24952380D01*
X18190476Y-25000000D01*
X18238095Y-25047619D01*
X18285714Y-25142857D01*
X18285714Y-25238095D01*
X18238095Y-25380952D01*
X17666666Y-25952380D01*
X18285714Y-25952380D01*
%TO.C,R1*%
X4963333Y-32452380D02*
X4630000Y-31976190D01*
X4391904Y-32452380D02*
X4391904Y-31452380D01*
X4772857Y-31452380D01*
X4868095Y-31500000D01*
X4915714Y-31547619D01*
X4963333Y-31642857D01*
X4963333Y-31785714D01*
X4915714Y-31880952D01*
X4868095Y-31928571D01*
X4772857Y-31976190D01*
X4391904Y-31976190D01*
X5915714Y-32452380D02*
X5344285Y-32452380D01*
X5630000Y-32452380D02*
X5630000Y-31452380D01*
X5534761Y-31595238D01*
X5439523Y-31690476D01*
X5344285Y-31738095D01*
%TO.C,U1*%
X10738095Y-18672380D02*
X10738095Y-19481904D01*
X10785714Y-19577142D01*
X10833333Y-19624761D01*
X10928571Y-19672380D01*
X11119047Y-19672380D01*
X11214285Y-19624761D01*
X11261904Y-19577142D01*
X11309523Y-19481904D01*
X11309523Y-18672380D01*
X12309523Y-19672380D02*
X11738095Y-19672380D01*
X12023809Y-19672380D02*
X12023809Y-18672380D01*
X11928571Y-18815238D01*
X11833333Y-18910476D01*
X11738095Y-18958095D01*
%TO.C,R2*%
X35833333Y-45822380D02*
X35500000Y-45346190D01*
X35261904Y-45822380D02*
X35261904Y-44822380D01*
X35642857Y-44822380D01*
X35738095Y-44870000D01*
X35785714Y-44917619D01*
X35833333Y-45012857D01*
X35833333Y-45155714D01*
X35785714Y-45250952D01*
X35738095Y-45298571D01*
X35642857Y-45346190D01*
X35261904Y-45346190D01*
X36214285Y-44917619D02*
X36261904Y-44870000D01*
X36357142Y-44822380D01*
X36595238Y-44822380D01*
X36690476Y-44870000D01*
X36738095Y-44917619D01*
X36785714Y-45012857D01*
X36785714Y-45108095D01*
X36738095Y-45250952D01*
X36166666Y-45822380D01*
X36785714Y-45822380D01*
%TO.C,Q2*%
X47404761Y-28047619D02*
X47309523Y-28000000D01*
X47214285Y-27904761D01*
X47071428Y-27761904D01*
X46976190Y-27714285D01*
X46880952Y-27714285D01*
X46928571Y-27952380D02*
X46833333Y-27904761D01*
X46738095Y-27809523D01*
X46690476Y-27619047D01*
X46690476Y-27285714D01*
X46738095Y-27095238D01*
X46833333Y-27000000D01*
X46928571Y-26952380D01*
X47119047Y-26952380D01*
X47214285Y-27000000D01*
X47309523Y-27095238D01*
X47357142Y-27285714D01*
X47357142Y-27619047D01*
X47309523Y-27809523D01*
X47214285Y-27904761D01*
X47119047Y-27952380D01*
X46928571Y-27952380D01*
X47738095Y-27047619D02*
X47785714Y-27000000D01*
X47880952Y-26952380D01*
X48119047Y-26952380D01*
X48214285Y-27000000D01*
X48261904Y-27047619D01*
X48309523Y-27142857D01*
X48309523Y-27238095D01*
X48261904Y-27380952D01*
X47690476Y-27952380D01*
X48309523Y-27952380D01*
%TO.C,D1*%
X13991904Y-38952380D02*
X13991904Y-37952380D01*
X14230000Y-37952380D01*
X14372857Y-38000000D01*
X14468095Y-38095238D01*
X14515714Y-38190476D01*
X14563333Y-38380952D01*
X14563333Y-38523809D01*
X14515714Y-38714285D01*
X14468095Y-38809523D01*
X14372857Y-38904761D01*
X14230000Y-38952380D01*
X13991904Y-38952380D01*
X15515714Y-38952380D02*
X14944285Y-38952380D01*
X15230000Y-38952380D02*
X15230000Y-37952380D01*
X15134761Y-38095238D01*
X15039523Y-38190476D01*
X14944285Y-38238095D01*
%TO.C,C3*%
X38833333Y-9857142D02*
X38785714Y-9904761D01*
X38642857Y-9952380D01*
X38547619Y-9952380D01*
X38404761Y-9904761D01*
X38309523Y-9809523D01*
X38261904Y-9714285D01*
X38214285Y-9523809D01*
X38214285Y-9380952D01*
X38261904Y-9190476D01*
X38309523Y-9095238D01*
X38404761Y-9000000D01*
X38547619Y-8952380D01*
X38642857Y-8952380D01*
X38785714Y-9000000D01*
X38833333Y-9047619D01*
X39166666Y-8952380D02*
X39785714Y-8952380D01*
X39452380Y-9333333D01*
X39595238Y-9333333D01*
X39690476Y-9380952D01*
X39738095Y-9428571D01*
X39785714Y-9523809D01*
X39785714Y-9761904D01*
X39738095Y-9857142D01*
X39690476Y-9904761D01*
X39595238Y-9952380D01*
X39309523Y-9952380D01*
X39214285Y-9904761D01*
X39166666Y-9857142D01*
%TO.C,U2*%
X26238095Y-13952380D02*
X26238095Y-14761904D01*
X26285714Y-14857142D01*
X26333333Y-14904761D01*
X26428571Y-14952380D01*
X26619047Y-14952380D01*
X26714285Y-14904761D01*
X26761904Y-14857142D01*
X26809523Y-14761904D01*
X26809523Y-13952380D01*
X27238095Y-14047619D02*
X27285714Y-14000000D01*
X27380952Y-13952380D01*
X27619047Y-13952380D01*
X27714285Y-14000000D01*
X27761904Y-14047619D01*
X27809523Y-14142857D01*
X27809523Y-14238095D01*
X27761904Y-14380952D01*
X27190476Y-14952380D01*
X27809523Y-14952380D01*
X22372571Y-29620571D02*
X22705904Y-29620571D01*
X22848761Y-30144380D02*
X22372571Y-30144380D01*
X22372571Y-29144380D01*
X22848761Y-29144380D01*
X23229714Y-30096761D02*
X23372571Y-30144380D01*
X23610666Y-30144380D01*
X23705904Y-30096761D01*
X23753523Y-30049142D01*
X23801142Y-29953904D01*
X23801142Y-29858666D01*
X23753523Y-29763428D01*
X23705904Y-29715809D01*
X23610666Y-29668190D01*
X23420190Y-29620571D01*
X23324952Y-29572952D01*
X23277333Y-29525333D01*
X23229714Y-29430095D01*
X23229714Y-29334857D01*
X23277333Y-29239619D01*
X23324952Y-29192000D01*
X23420190Y-29144380D01*
X23658285Y-29144380D01*
X23801142Y-29192000D01*
X24229714Y-30144380D02*
X24229714Y-29144380D01*
X24610666Y-29144380D01*
X24705904Y-29192000D01*
X24753523Y-29239619D01*
X24801142Y-29334857D01*
X24801142Y-29477714D01*
X24753523Y-29572952D01*
X24705904Y-29620571D01*
X24610666Y-29668190D01*
X24229714Y-29668190D01*
X25372571Y-29572952D02*
X25277333Y-29525333D01*
X25229714Y-29477714D01*
X25182095Y-29382476D01*
X25182095Y-29334857D01*
X25229714Y-29239619D01*
X25277333Y-29192000D01*
X25372571Y-29144380D01*
X25563047Y-29144380D01*
X25658285Y-29192000D01*
X25705904Y-29239619D01*
X25753523Y-29334857D01*
X25753523Y-29382476D01*
X25705904Y-29477714D01*
X25658285Y-29525333D01*
X25563047Y-29572952D01*
X25372571Y-29572952D01*
X25277333Y-29620571D01*
X25229714Y-29668190D01*
X25182095Y-29763428D01*
X25182095Y-29953904D01*
X25229714Y-30049142D01*
X25277333Y-30096761D01*
X25372571Y-30144380D01*
X25563047Y-30144380D01*
X25658285Y-30096761D01*
X25705904Y-30049142D01*
X25753523Y-29953904D01*
X25753523Y-29763428D01*
X25705904Y-29668190D01*
X25658285Y-29620571D01*
X25563047Y-29572952D01*
X26134476Y-29239619D02*
X26182095Y-29192000D01*
X26277333Y-29144380D01*
X26515428Y-29144380D01*
X26610666Y-29192000D01*
X26658285Y-29239619D01*
X26705904Y-29334857D01*
X26705904Y-29430095D01*
X26658285Y-29572952D01*
X26086857Y-30144380D01*
X26705904Y-30144380D01*
X27563047Y-29144380D02*
X27372571Y-29144380D01*
X27277333Y-29192000D01*
X27229714Y-29239619D01*
X27134476Y-29382476D01*
X27086857Y-29572952D01*
X27086857Y-29953904D01*
X27134476Y-30049142D01*
X27182095Y-30096761D01*
X27277333Y-30144380D01*
X27467809Y-30144380D01*
X27563047Y-30096761D01*
X27610666Y-30049142D01*
X27658285Y-29953904D01*
X27658285Y-29715809D01*
X27610666Y-29620571D01*
X27563047Y-29572952D01*
X27467809Y-29525333D01*
X27277333Y-29525333D01*
X27182095Y-29572952D01*
X27134476Y-29620571D01*
X27086857Y-29715809D01*
X28515428Y-29144380D02*
X28324952Y-29144380D01*
X28229714Y-29192000D01*
X28182095Y-29239619D01*
X28086857Y-29382476D01*
X28039238Y-29572952D01*
X28039238Y-29953904D01*
X28086857Y-30049142D01*
X28134476Y-30096761D01*
X28229714Y-30144380D01*
X28420190Y-30144380D01*
X28515428Y-30096761D01*
X28563047Y-30049142D01*
X28610666Y-29953904D01*
X28610666Y-29715809D01*
X28563047Y-29620571D01*
X28515428Y-29572952D01*
X28420190Y-29525333D01*
X28229714Y-29525333D01*
X28134476Y-29572952D01*
X28086857Y-29620571D01*
X28039238Y-29715809D01*
X29039238Y-29763428D02*
X29801142Y-29763428D01*
X30467809Y-29144380D02*
X30563047Y-29144380D01*
X30658285Y-29192000D01*
X30705904Y-29239619D01*
X30753523Y-29334857D01*
X30801142Y-29525333D01*
X30801142Y-29763428D01*
X30753523Y-29953904D01*
X30705904Y-30049142D01*
X30658285Y-30096761D01*
X30563047Y-30144380D01*
X30467809Y-30144380D01*
X30372571Y-30096761D01*
X30324952Y-30049142D01*
X30277333Y-29953904D01*
X30229714Y-29763428D01*
X30229714Y-29525333D01*
X30277333Y-29334857D01*
X30324952Y-29239619D01*
X30372571Y-29192000D01*
X30467809Y-29144380D01*
X31753523Y-30144380D02*
X31182095Y-30144380D01*
X31467809Y-30144380D02*
X31467809Y-29144380D01*
X31372571Y-29287238D01*
X31277333Y-29382476D01*
X31182095Y-29430095D01*
X32134476Y-30096761D02*
X32229714Y-30144380D01*
X32420190Y-30144380D01*
X32515428Y-30096761D01*
X32563047Y-30001523D01*
X32563047Y-29953904D01*
X32515428Y-29858666D01*
X32420190Y-29811047D01*
X32277333Y-29811047D01*
X32182095Y-29763428D01*
X32134476Y-29668190D01*
X32134476Y-29620571D01*
X32182095Y-29525333D01*
X32277333Y-29477714D01*
X32420190Y-29477714D01*
X32515428Y-29525333D01*
%TO.C,Q1*%
X40864761Y-40047619D02*
X40769523Y-40000000D01*
X40674285Y-39904761D01*
X40531428Y-39761904D01*
X40436190Y-39714285D01*
X40340952Y-39714285D01*
X40388571Y-39952380D02*
X40293333Y-39904761D01*
X40198095Y-39809523D01*
X40150476Y-39619047D01*
X40150476Y-39285714D01*
X40198095Y-39095238D01*
X40293333Y-39000000D01*
X40388571Y-38952380D01*
X40579047Y-38952380D01*
X40674285Y-39000000D01*
X40769523Y-39095238D01*
X40817142Y-39285714D01*
X40817142Y-39619047D01*
X40769523Y-39809523D01*
X40674285Y-39904761D01*
X40579047Y-39952380D01*
X40388571Y-39952380D01*
X41769523Y-39952380D02*
X41198095Y-39952380D01*
X41483809Y-39952380D02*
X41483809Y-38952380D01*
X41388571Y-39095238D01*
X41293333Y-39190476D01*
X41198095Y-39238095D01*
%TO.C,C1*%
X18833333Y-9567142D02*
X18785714Y-9614761D01*
X18642857Y-9662380D01*
X18547619Y-9662380D01*
X18404761Y-9614761D01*
X18309523Y-9519523D01*
X18261904Y-9424285D01*
X18214285Y-9233809D01*
X18214285Y-9090952D01*
X18261904Y-8900476D01*
X18309523Y-8805238D01*
X18404761Y-8710000D01*
X18547619Y-8662380D01*
X18642857Y-8662380D01*
X18785714Y-8710000D01*
X18833333Y-8757619D01*
X19785714Y-9662380D02*
X19214285Y-9662380D01*
X19500000Y-9662380D02*
X19500000Y-8662380D01*
X19404761Y-8805238D01*
X19309523Y-8900476D01*
X19214285Y-8948095D01*
D15*
%TO.C,R3*%
X23810000Y-39370000D02*
X30350000Y-39370000D01*
X23810000Y-36630000D02*
X23810000Y-39370000D01*
X31120000Y-38000000D02*
X30350000Y-38000000D01*
X30350000Y-36630000D02*
X23810000Y-36630000D01*
X23040000Y-38000000D02*
X23810000Y-38000000D01*
X30350000Y-39370000D02*
X30350000Y-36630000D01*
%TO.C,J3*%
X57245000Y-41330000D02*
X62385000Y-41330000D01*
X55975000Y-41330000D02*
X54645000Y-41330000D01*
X57245000Y-38670000D02*
X62385000Y-38670000D01*
X62385000Y-41330000D02*
X62385000Y-38670000D01*
X54645000Y-41330000D02*
X54645000Y-40000000D01*
X57245000Y-41330000D02*
X57245000Y-38670000D01*
%TO.C,D2*%
X47700000Y-44530000D02*
X47700000Y-47470000D01*
X52120000Y-47470000D02*
X52120000Y-44530000D01*
X53140000Y-44530000D02*
X47700000Y-44530000D01*
X46680000Y-46000000D02*
X47700000Y-46000000D01*
X53140000Y-47470000D02*
X53140000Y-44530000D01*
X52240000Y-47470000D02*
X52240000Y-44530000D01*
X47700000Y-47470000D02*
X53140000Y-47470000D01*
X52360000Y-47470000D02*
X52360000Y-44530000D01*
X54160000Y-46000000D02*
X53140000Y-46000000D01*
%TO.C,K1*%
X64950000Y-22550000D02*
X64950000Y-20050000D01*
X54800000Y-30650000D02*
X57250000Y-30650000D01*
X58950000Y-27450000D02*
X61450000Y-32050000D01*
X58950000Y-19150000D02*
X58950000Y-18350000D01*
X58950000Y-25950000D02*
X55350000Y-25950000D01*
X52950000Y-20050000D02*
X52950000Y-22550000D01*
X57150000Y-24550000D02*
X57150000Y-20550000D01*
X57150000Y-22550000D02*
X52950000Y-22550000D01*
X60750000Y-20550000D02*
X60750000Y-24550000D01*
X58950000Y-19150000D02*
X55350000Y-19150000D01*
X66800000Y-34900000D02*
X51200000Y-34900000D01*
X57800000Y-15100000D02*
X51200000Y-15100000D01*
X66800000Y-15100000D02*
X60200000Y-15100000D01*
X66800000Y-15100000D02*
X66800000Y-34900000D01*
X64950000Y-22550000D02*
X60750000Y-22550000D01*
X60750000Y-24550000D02*
X57150000Y-24550000D01*
X57150000Y-24550000D02*
X60750000Y-20550000D01*
X58950000Y-25950000D02*
X58950000Y-27450000D01*
X51200000Y-34900000D02*
X51200000Y-15100000D01*
X57150000Y-20550000D02*
X60750000Y-20550000D01*
X63200000Y-30650000D02*
X60700000Y-30650000D01*
X55350000Y-25950000D02*
X55350000Y-19150000D01*
%TO.C,J1*%
X8920000Y-13970000D02*
X8920000Y-16570000D01*
X6260000Y-12700000D02*
X6260000Y-11370000D01*
X6260000Y-16570000D02*
X8920000Y-16570000D01*
X6260000Y-13970000D02*
X6260000Y-16570000D01*
X6260000Y-13970000D02*
X8920000Y-13970000D01*
X6260000Y-11370000D02*
X7590000Y-11370000D01*
%TO.C,J2*%
X44170000Y-21670000D02*
X46830000Y-21670000D01*
X44170000Y-16470000D02*
X45500000Y-16470000D01*
X44170000Y-19070000D02*
X44170000Y-21670000D01*
X44170000Y-17800000D02*
X44170000Y-16470000D01*
X46830000Y-19070000D02*
X46830000Y-21670000D01*
X44170000Y-19070000D02*
X46830000Y-19070000D01*
%TO.C,C2*%
X11397712Y-23940000D02*
X11397712Y-24390000D01*
X11172712Y-24165000D02*
X11622712Y-24165000D01*
X11590259Y-26560000D02*
G75*
G03*
X11590259Y-24440000I2119741J1060000D01*
G01*
%TO.C,R1*%
X8870000Y-28730000D02*
X6130000Y-28730000D01*
X6130000Y-35270000D02*
X8870000Y-35270000D01*
X7500000Y-27960000D02*
X7500000Y-28730000D01*
X7500000Y-36040000D02*
X7500000Y-35270000D01*
X8870000Y-35270000D02*
X8870000Y-28730000D01*
X6130000Y-28730000D02*
X6130000Y-35270000D01*
%TO.C,U1*%
X16800000Y-16150000D02*
X13200000Y-16150000D01*
X13161522Y-16161522D02*
G75*
G03*
X15000000Y-20600000I1838478J-1838478D01*
G01*
X15000000Y-20600001D02*
G75*
G03*
X16838478Y-16161522I0J2600001D01*
G01*
%TO.C,R2*%
X40040000Y-43000000D02*
X39270000Y-43000000D01*
X31960000Y-43000000D02*
X32730000Y-43000000D01*
X32730000Y-44370000D02*
X39270000Y-44370000D01*
X32730000Y-41630000D02*
X32730000Y-44370000D01*
X39270000Y-44370000D02*
X39270000Y-41630000D01*
X39270000Y-41630000D02*
X32730000Y-41630000D01*
%TO.C,Q2*%
X46080000Y-29960000D02*
X35840000Y-29960000D01*
X46080000Y-28450000D02*
X35840000Y-28450000D01*
X35840000Y-29960000D02*
X35840000Y-25319000D01*
X46080000Y-29960000D02*
X46080000Y-25319000D01*
X42810000Y-29960000D02*
X42810000Y-28450000D01*
X46080000Y-25319000D02*
X35840000Y-25319000D01*
X39109000Y-29960000D02*
X39109000Y-28450000D01*
%TO.C,D1*%
X17290000Y-36045000D02*
X17290000Y-32955000D01*
X17290000Y-32955170D02*
G75*
G03*
X11740000Y-34500462I-2560000J-1544830D01*
G01*
X11740000Y-34499538D02*
G75*
G03*
X17290000Y-36044830I2990000J-462D01*
G01*
X17230000Y-34500000D02*
G75*
G03*
X17230000Y-34500000I-2500000J0D01*
G01*
%TO.C,C3*%
X41120000Y-11630000D02*
X39756000Y-11630000D01*
X41120000Y-11630000D02*
X41120000Y-22370000D01*
X35880000Y-11630000D02*
X35880000Y-22370000D01*
X41120000Y-22370000D02*
X39756000Y-22370000D01*
X37244000Y-22370000D02*
X35880000Y-22370000D01*
X37244000Y-11630000D02*
X35880000Y-11630000D01*
D16*
%TO.C,U2*%
X20078000Y-40360000D02*
X20078000Y-15722000D01*
D17*
X32270000Y-16230000D02*
X29730000Y-16230000D01*
D16*
X34302000Y-40360000D02*
X20078000Y-40360000D01*
D17*
X22110000Y-16230000D02*
X22110000Y-21310000D01*
D16*
X20078000Y-15722000D02*
X34302000Y-15722000D01*
X34302000Y-15722000D02*
X34302000Y-40360000D01*
D17*
X29730000Y-16230000D02*
X22110000Y-16230000D01*
X32270000Y-21310000D02*
X32270000Y-18770000D01*
X32270000Y-18770000D02*
X32270000Y-16230000D01*
X22110000Y-21310000D02*
X32270000Y-21310000D01*
D15*
%TO.C,Q1*%
X39160000Y-38351115D02*
X42760000Y-38351115D01*
X40960000Y-33901114D02*
G75*
G03*
X39121522Y-38339593I0J-2600001D01*
G01*
X42798478Y-38339593D02*
G75*
G03*
X40960000Y-33901115I-1838478J1838478D01*
G01*
%TO.C,C1*%
X16835000Y-6672712D02*
X16835000Y-7122712D01*
X17060000Y-6897712D02*
X16610000Y-6897712D01*
X14440000Y-7090259D02*
G75*
G03*
X16560000Y-7090259I1060000J-2119741D01*
G01*
%TD*%
%LPC*%
D18*
%TO.C,REF\u002A\u002A*%
X3000000Y-3000000D03*
%TD*%
D19*
%TO.C,R3*%
X22000000Y-38000000D03*
D20*
X32160000Y-38000000D03*
%TD*%
D21*
%TO.C,J3*%
X55975000Y-40000000D03*
D22*
X58515000Y-40000000D03*
X61055000Y-40000000D03*
%TD*%
D23*
%TO.C,D2*%
X55500000Y-46000000D03*
D24*
X45340000Y-46000000D03*
%TD*%
D18*
%TO.C,REF\u002A\u002A*%
X3000000Y-47000000D03*
%TD*%
D25*
%TO.C,K1*%
X59000000Y-16500000D03*
D26*
X52950000Y-18450000D03*
D25*
X52950000Y-30650000D03*
X65000000Y-30700000D03*
D26*
X64950000Y-18450000D03*
%TD*%
D18*
%TO.C,REF\u002A\u002A*%
X67000000Y-47000000D03*
%TD*%
D21*
%TO.C,J1*%
X7590000Y-12700000D03*
D22*
X7590000Y-15240000D03*
%TD*%
D21*
%TO.C,J2*%
X45500000Y-17800000D03*
D22*
X45500000Y-20340000D03*
%TD*%
D27*
%TO.C,C2*%
X12460000Y-25500000D03*
D19*
X14960000Y-25500000D03*
%TD*%
%TO.C,R1*%
X7500000Y-37080000D03*
D20*
X7500000Y-26920000D03*
%TD*%
D28*
%TO.C,U1*%
X16270000Y-18000000D03*
D29*
X15000000Y-18000000D03*
X13730000Y-18000000D03*
%TD*%
D19*
%TO.C,R2*%
X41080000Y-43000000D03*
D20*
X30920000Y-43000000D03*
%TD*%
D30*
%TO.C,Q2*%
X43500000Y-26690000D03*
D31*
X40960000Y-26690000D03*
X38420000Y-26690000D03*
%TD*%
D32*
%TO.C,D1*%
X16000000Y-34500000D03*
D33*
X13460000Y-34500000D03*
%TD*%
D34*
%TO.C,C3*%
X38500000Y-12000000D03*
X38500000Y-22000000D03*
%TD*%
D35*
%TO.C,U2*%
X31000000Y-20040000D03*
D36*
X31000000Y-17500000D03*
X28460000Y-20040000D03*
X28460000Y-17500000D03*
X25920000Y-20040000D03*
X25920000Y-17500000D03*
X23380000Y-20040000D03*
X23380000Y-17500000D03*
%TD*%
D28*
%TO.C,Q1*%
X39690000Y-36501115D03*
D29*
X40960000Y-36501115D03*
X42230000Y-36501115D03*
%TD*%
D27*
%TO.C,C1*%
X15500000Y-7960000D03*
D19*
X15500000Y-10460000D03*
%TD*%
D18*
%TO.C,REF\u002A\u002A*%
X67000000Y-3000000D03*
%TD*%
M02*
