%TF.GenerationSoftware,KiCad,Pcbnew,6.0.11-2627ca5db0~126~ubuntu20.04.1*%
%TF.CreationDate,2023-08-16T23:13:59-05:00*%
%TF.ProjectId,runLimiter,72756e4c-696d-4697-9465-722e6b696361,01*%
%TF.SameCoordinates,Original*%
%TF.FileFunction,Copper,L1,Top*%
%TF.FilePolarity,Positive*%
%FSLAX46Y46*%
G04 Gerber Fmt 4.6, Leading zero omitted, Abs format (unit mm)*
G04 Created by KiCad (PCBNEW 6.0.11-2627ca5db0~126~ubuntu20.04.1) date 2023-08-16 23:13:59*
%MOMM*%
%LPD*%
G01*
G04 APERTURE LIST*
%TA.AperFunction,Profile*%
%ADD10C,0.100000*%
%TD*%
%TA.AperFunction,ComponentPad*%
%ADD11C,6.400000*%
%TD*%
%TA.AperFunction,ComponentPad*%
%ADD12C,1.600000*%
%TD*%
%TA.AperFunction,ComponentPad*%
%ADD13O,1.600000X1.600000*%
%TD*%
%TA.AperFunction,ComponentPad*%
%ADD14R,1.700000X1.700000*%
%TD*%
%TA.AperFunction,ComponentPad*%
%ADD15O,1.700000X1.700000*%
%TD*%
%TA.AperFunction,ComponentPad*%
%ADD16R,2.200000X2.200000*%
%TD*%
%TA.AperFunction,ComponentPad*%
%ADD17O,2.200000X2.200000*%
%TD*%
%TA.AperFunction,ComponentPad*%
%ADD18C,3.000000*%
%TD*%
%TA.AperFunction,ComponentPad*%
%ADD19C,2.500000*%
%TD*%
%TA.AperFunction,ComponentPad*%
%ADD20R,1.600000X1.600000*%
%TD*%
%TA.AperFunction,ComponentPad*%
%ADD21R,1.050000X1.500000*%
%TD*%
%TA.AperFunction,ComponentPad*%
%ADD22O,1.050000X1.500000*%
%TD*%
%TA.AperFunction,ComponentPad*%
%ADD23R,1.905000X2.000000*%
%TD*%
%TA.AperFunction,ComponentPad*%
%ADD24O,1.905000X2.000000*%
%TD*%
%TA.AperFunction,ComponentPad*%
%ADD25R,1.800000X1.800000*%
%TD*%
%TA.AperFunction,ComponentPad*%
%ADD26C,1.800000*%
%TD*%
%TA.AperFunction,ComponentPad*%
%ADD27C,2.000000*%
%TD*%
%TA.AperFunction,ComponentPad*%
%ADD28R,1.727200X1.727200*%
%TD*%
%TA.AperFunction,ComponentPad*%
%ADD29O,1.727200X1.727200*%
%TD*%
G04 APERTURE END LIST*
D10*
X0Y0D02*
X70000000Y0D01*
X70000000Y0D02*
X70000000Y-50000000D01*
X70000000Y-50000000D02*
X0Y-50000000D01*
X0Y-50000000D02*
X0Y0D01*
D11*
%TO.P,REF\u002A\u002A,1*%
%TO.N,N/C*%
X3000000Y-3000000D03*
%TD*%
D12*
%TO.P,R3,1*%
%TO.N,Net-(R3-Pad1)*%
X22000000Y-38000000D03*
D13*
%TO.P,R3,2*%
%TO.N,/Internal Power*%
X32160000Y-38000000D03*
%TD*%
D14*
%TO.P,J3,1,Pin_1*%
%TO.N,Net-(J3-Pad1)*%
X55975000Y-40000000D03*
D15*
%TO.P,J3,2,Pin_2*%
%TO.N,Net-(J3-Pad2)*%
X58515000Y-40000000D03*
%TO.P,J3,3,Pin_3*%
%TO.N,Net-(J3-Pad3)*%
X61055000Y-40000000D03*
%TD*%
D16*
%TO.P,D2,1,K*%
%TO.N,/Control Power*%
X55500000Y-46000000D03*
D17*
%TO.P,D2,2,A*%
%TO.N,/Control Ground*%
X45340000Y-46000000D03*
%TD*%
D11*
%TO.P,REF\u002A\u002A,4*%
%TO.N,N/C*%
X3000000Y-47000000D03*
%TD*%
D18*
%TO.P,K1,1*%
%TO.N,Net-(J3-Pad2)*%
X59000000Y-16500000D03*
D19*
%TO.P,K1,2*%
%TO.N,/Control Ground*%
X52950000Y-18450000D03*
D18*
%TO.P,K1,3*%
%TO.N,Net-(J3-Pad1)*%
X52950000Y-30650000D03*
%TO.P,K1,4*%
%TO.N,Net-(J3-Pad3)*%
X65000000Y-30700000D03*
D19*
%TO.P,K1,5*%
%TO.N,/Control Power*%
X64950000Y-18450000D03*
%TD*%
D11*
%TO.P,REF\u002A\u002A,3*%
%TO.N,N/C*%
X67000000Y-47000000D03*
%TD*%
D14*
%TO.P,J1,1,Pin_1*%
%TO.N,/Control Power*%
X7590000Y-12700000D03*
D15*
%TO.P,J1,2,Pin_2*%
%TO.N,GNDREF*%
X7590000Y-15240000D03*
%TD*%
D14*
%TO.P,J2,1,Pin_1*%
%TO.N,/Control Power*%
X45500000Y-17800000D03*
D15*
%TO.P,J2,2,Pin_2*%
%TO.N,/Control Ground*%
X45500000Y-20340000D03*
%TD*%
D20*
%TO.P,C2,1*%
%TO.N,/Internal Power*%
X12460000Y-25500000D03*
D12*
%TO.P,C2,2*%
%TO.N,GNDREF*%
X14960000Y-25500000D03*
%TD*%
%TO.P,R1,1*%
%TO.N,Net-(D1-Pad2)*%
X7500000Y-37080000D03*
D13*
%TO.P,R1,2*%
%TO.N,/Internal Power*%
X7500000Y-26920000D03*
%TD*%
D21*
%TO.P,U1,1,GND*%
%TO.N,GNDREF*%
X16270000Y-18000000D03*
D22*
%TO.P,U1,2,VI*%
%TO.N,/Control Power*%
X15000000Y-18000000D03*
%TO.P,U1,3,VO*%
%TO.N,/Internal Power*%
X13730000Y-18000000D03*
%TD*%
D12*
%TO.P,R2,1*%
%TO.N,Net-(Q1-Pad2)*%
X41080000Y-43000000D03*
D13*
%TO.P,R2,2*%
%TO.N,Net-(R2-Pad2)*%
X30920000Y-43000000D03*
%TD*%
D23*
%TO.P,Q2,1,B*%
%TO.N,Net-(Q1-Pad2)*%
X43500000Y-26690000D03*
D24*
%TO.P,Q2,2,C*%
%TO.N,/Control Ground*%
X40960000Y-26690000D03*
%TO.P,Q2,3,E*%
%TO.N,GNDREF*%
X38420000Y-26690000D03*
%TD*%
D25*
%TO.P,D1,1,K*%
%TO.N,Net-(D1-Pad1)*%
X16000000Y-34500000D03*
D26*
%TO.P,D1,2,A*%
%TO.N,Net-(D1-Pad2)*%
X13460000Y-34500000D03*
%TD*%
D27*
%TO.P,C3,1*%
%TO.N,/Control Power*%
X38500000Y-12000000D03*
%TO.P,C3,2*%
%TO.N,GNDREF*%
X38500000Y-22000000D03*
%TD*%
D28*
%TO.P,U2,1,GND*%
%TO.N,GNDREF*%
X31000000Y-20040000D03*
D29*
%TO.P,U2,2,U0TXD/GPIO1*%
%TO.N,unconnected-(U2-Pad2)*%
X31000000Y-17500000D03*
%TO.P,U2,3,U1TXD/GPIO2*%
%TO.N,Net-(R3-Pad1)*%
X28460000Y-20040000D03*
%TO.P,U2,4,CH_EN/CH_PD*%
%TO.N,unconnected-(U2-Pad4)*%
X28460000Y-17500000D03*
%TO.P,U2,5,GPIO0*%
%TO.N,Net-(D1-Pad1)*%
X25920000Y-20040000D03*
%TO.P,U2,6,RST*%
%TO.N,unconnected-(U2-Pad6)*%
X25920000Y-17500000D03*
%TO.P,U2,7,GPIO3/U0RXD*%
%TO.N,Net-(R2-Pad2)*%
X23380000Y-20040000D03*
%TO.P,U2,8,VCC*%
%TO.N,/Internal Power*%
X23380000Y-17500000D03*
%TD*%
D21*
%TO.P,Q1,1,E*%
%TO.N,GNDREF*%
X39690000Y-36501115D03*
D22*
%TO.P,Q1,2,B*%
%TO.N,Net-(Q1-Pad2)*%
X40960000Y-36501115D03*
%TO.P,Q1,3,C*%
%TO.N,/Control Ground*%
X42230000Y-36501115D03*
%TD*%
D20*
%TO.P,C1,1*%
%TO.N,/Control Power*%
X15500000Y-7960000D03*
D12*
%TO.P,C1,2*%
%TO.N,GNDREF*%
X15500000Y-10460000D03*
%TD*%
D11*
%TO.P,REF\u002A\u002A,2*%
%TO.N,N/C*%
X67000000Y-3000000D03*
%TD*%
M02*
