%TF.GenerationSoftware,KiCad,Pcbnew,6.0.11-2627ca5db0~126~ubuntu20.04.1*%
%TF.CreationDate,2023-08-16T23:13:59-05:00*%
%TF.ProjectId,runLimiter,72756e4c-696d-4697-9465-722e6b696361,01*%
%TF.SameCoordinates,Original*%
%TF.FileFunction,Legend,Bot*%
%TF.FilePolarity,Positive*%
%FSLAX46Y46*%
G04 Gerber Fmt 4.6, Leading zero omitted, Abs format (unit mm)*
G04 Created by KiCad (PCBNEW 6.0.11-2627ca5db0~126~ubuntu20.04.1) date 2023-08-16 23:13:59*
%MOMM*%
%LPD*%
G01*
G04 APERTURE LIST*
%TA.AperFunction,Profile*%
%ADD10C,0.100000*%
%TD*%
%ADD11C,6.400000*%
%ADD12C,1.600000*%
%ADD13O,1.600000X1.600000*%
%ADD14R,1.700000X1.700000*%
%ADD15O,1.700000X1.700000*%
%ADD16R,2.200000X2.200000*%
%ADD17O,2.200000X2.200000*%
%ADD18C,3.000000*%
%ADD19C,2.500000*%
%ADD20R,1.600000X1.600000*%
%ADD21R,1.050000X1.500000*%
%ADD22O,1.050000X1.500000*%
%ADD23R,1.905000X2.000000*%
%ADD24O,1.905000X2.000000*%
%ADD25R,1.800000X1.800000*%
%ADD26C,1.800000*%
%ADD27C,2.000000*%
%ADD28R,1.727200X1.727200*%
%ADD29O,1.727200X1.727200*%
G04 APERTURE END LIST*
D10*
X0Y0D02*
X70000000Y0D01*
X70000000Y0D02*
X70000000Y-50000000D01*
X70000000Y-50000000D02*
X0Y-50000000D01*
X0Y-50000000D02*
X0Y0D01*
%LPC*%
D11*
%TO.C,REF\u002A\u002A*%
X3000000Y-3000000D03*
%TD*%
D12*
%TO.C,R3*%
X22000000Y-38000000D03*
D13*
X32160000Y-38000000D03*
%TD*%
D14*
%TO.C,J3*%
X55975000Y-40000000D03*
D15*
X58515000Y-40000000D03*
X61055000Y-40000000D03*
%TD*%
D16*
%TO.C,D2*%
X55500000Y-46000000D03*
D17*
X45340000Y-46000000D03*
%TD*%
D11*
%TO.C,REF\u002A\u002A*%
X3000000Y-47000000D03*
%TD*%
D18*
%TO.C,K1*%
X59000000Y-16500000D03*
D19*
X52950000Y-18450000D03*
D18*
X52950000Y-30650000D03*
X65000000Y-30700000D03*
D19*
X64950000Y-18450000D03*
%TD*%
D11*
%TO.C,REF\u002A\u002A*%
X67000000Y-47000000D03*
%TD*%
D14*
%TO.C,J1*%
X7590000Y-12700000D03*
D15*
X7590000Y-15240000D03*
%TD*%
D14*
%TO.C,J2*%
X45500000Y-17800000D03*
D15*
X45500000Y-20340000D03*
%TD*%
D20*
%TO.C,C2*%
X12460000Y-25500000D03*
D12*
X14960000Y-25500000D03*
%TD*%
%TO.C,R1*%
X7500000Y-37080000D03*
D13*
X7500000Y-26920000D03*
%TD*%
D21*
%TO.C,U1*%
X16270000Y-18000000D03*
D22*
X15000000Y-18000000D03*
X13730000Y-18000000D03*
%TD*%
D12*
%TO.C,R2*%
X41080000Y-43000000D03*
D13*
X30920000Y-43000000D03*
%TD*%
D23*
%TO.C,Q2*%
X43500000Y-26690000D03*
D24*
X40960000Y-26690000D03*
X38420000Y-26690000D03*
%TD*%
D25*
%TO.C,D1*%
X16000000Y-34500000D03*
D26*
X13460000Y-34500000D03*
%TD*%
D27*
%TO.C,C3*%
X38500000Y-12000000D03*
X38500000Y-22000000D03*
%TD*%
D28*
%TO.C,U2*%
X31000000Y-20040000D03*
D29*
X31000000Y-17500000D03*
X28460000Y-20040000D03*
X28460000Y-17500000D03*
X25920000Y-20040000D03*
X25920000Y-17500000D03*
X23380000Y-20040000D03*
X23380000Y-17500000D03*
%TD*%
D21*
%TO.C,Q1*%
X39690000Y-36501115D03*
D22*
X40960000Y-36501115D03*
X42230000Y-36501115D03*
%TD*%
D20*
%TO.C,C1*%
X15500000Y-7960000D03*
D12*
X15500000Y-10460000D03*
%TD*%
D11*
%TO.C,REF\u002A\u002A*%
X67000000Y-3000000D03*
%TD*%
M02*
