%TF.GenerationSoftware,KiCad,Pcbnew,6.0.11-2627ca5db0~126~ubuntu20.04.1*%
%TF.CreationDate,2023-07-30T12:35:16-04:00*%
%TF.ProjectId,runLimiter,72756e4c-696d-4697-9465-722e6b696361,01*%
%TF.SameCoordinates,Original*%
%TF.FileFunction,Legend,Top*%
%TF.FilePolarity,Positive*%
%FSLAX46Y46*%
G04 Gerber Fmt 4.6, Leading zero omitted, Abs format (unit mm)*
G04 Created by KiCad (PCBNEW 6.0.11-2627ca5db0~126~ubuntu20.04.1) date 2023-07-30 12:35:16*
%MOMM*%
%LPD*%
G01*
G04 APERTURE LIST*
%ADD10C,0.200000*%
%TA.AperFunction,Profile*%
%ADD11C,0.100000*%
%TD*%
%ADD12C,0.150000*%
%ADD13C,0.120000*%
%ADD14C,0.254000*%
%ADD15C,0.152400*%
%ADD16C,6.400000*%
%ADD17R,1.500000X1.050000*%
%ADD18O,1.500000X1.050000*%
%ADD19R,1.700000X1.700000*%
%ADD20O,1.700000X1.700000*%
%ADD21C,1.600000*%
%ADD22O,1.600000X1.600000*%
%ADD23R,1.905000X2.000000*%
%ADD24O,1.905000X2.000000*%
%ADD25R,1.800000X1.800000*%
%ADD26C,1.800000*%
%ADD27R,1.727200X1.727200*%
%ADD28O,1.727200X1.727200*%
%ADD29R,1.050000X1.500000*%
%ADD30O,1.050000X1.500000*%
G04 APERTURE END LIST*
D10*
X28750000Y-3056071D02*
X28250000Y-2341785D01*
X27892857Y-3056071D02*
X27892857Y-1556071D01*
X28464285Y-1556071D01*
X28607142Y-1627500D01*
X28678571Y-1698928D01*
X28750000Y-1841785D01*
X28750000Y-2056071D01*
X28678571Y-2198928D01*
X28607142Y-2270357D01*
X28464285Y-2341785D01*
X27892857Y-2341785D01*
X30035714Y-2056071D02*
X30035714Y-3056071D01*
X29392857Y-2056071D02*
X29392857Y-2841785D01*
X29464285Y-2984642D01*
X29607142Y-3056071D01*
X29821428Y-3056071D01*
X29964285Y-2984642D01*
X30035714Y-2913214D01*
X30750000Y-2056071D02*
X30750000Y-3056071D01*
X30750000Y-2198928D02*
X30821428Y-2127500D01*
X30964285Y-2056071D01*
X31178571Y-2056071D01*
X31321428Y-2127500D01*
X31392857Y-2270357D01*
X31392857Y-3056071D01*
X31892857Y-2056071D02*
X32464285Y-2056071D01*
X32107142Y-1556071D02*
X32107142Y-2841785D01*
X32178571Y-2984642D01*
X32321428Y-3056071D01*
X32464285Y-3056071D01*
X32964285Y-3056071D02*
X32964285Y-2056071D01*
X32964285Y-1556071D02*
X32892857Y-1627500D01*
X32964285Y-1698928D01*
X33035714Y-1627500D01*
X32964285Y-1556071D01*
X32964285Y-1698928D01*
X33678571Y-3056071D02*
X33678571Y-2056071D01*
X33678571Y-2198928D02*
X33750000Y-2127500D01*
X33892857Y-2056071D01*
X34107142Y-2056071D01*
X34250000Y-2127500D01*
X34321428Y-2270357D01*
X34321428Y-3056071D01*
X34321428Y-2270357D02*
X34392857Y-2127500D01*
X34535714Y-2056071D01*
X34750000Y-2056071D01*
X34892857Y-2127500D01*
X34964285Y-2270357D01*
X34964285Y-3056071D01*
X36250000Y-2984642D02*
X36107142Y-3056071D01*
X35821428Y-3056071D01*
X35678571Y-2984642D01*
X35607142Y-2841785D01*
X35607142Y-2270357D01*
X35678571Y-2127500D01*
X35821428Y-2056071D01*
X36107142Y-2056071D01*
X36250000Y-2127500D01*
X36321428Y-2270357D01*
X36321428Y-2413214D01*
X35607142Y-2556071D01*
X38821428Y-3056071D02*
X38107142Y-3056071D01*
X38107142Y-1556071D01*
X39321428Y-3056071D02*
X39321428Y-2056071D01*
X39321428Y-1556071D02*
X39250000Y-1627500D01*
X39321428Y-1698928D01*
X39392857Y-1627500D01*
X39321428Y-1556071D01*
X39321428Y-1698928D01*
X40035714Y-3056071D02*
X40035714Y-2056071D01*
X40035714Y-2198928D02*
X40107142Y-2127500D01*
X40250000Y-2056071D01*
X40464285Y-2056071D01*
X40607142Y-2127500D01*
X40678571Y-2270357D01*
X40678571Y-3056071D01*
X40678571Y-2270357D02*
X40750000Y-2127500D01*
X40892857Y-2056071D01*
X41107142Y-2056071D01*
X41250000Y-2127500D01*
X41321428Y-2270357D01*
X41321428Y-3056071D01*
X42035714Y-3056071D02*
X42035714Y-2056071D01*
X42035714Y-1556071D02*
X41964285Y-1627500D01*
X42035714Y-1698928D01*
X42107142Y-1627500D01*
X42035714Y-1556071D01*
X42035714Y-1698928D01*
X42535714Y-2056071D02*
X43107142Y-2056071D01*
X42750000Y-1556071D02*
X42750000Y-2841785D01*
X42821428Y-2984642D01*
X42964285Y-3056071D01*
X43107142Y-3056071D01*
X44178571Y-2984642D02*
X44035714Y-3056071D01*
X43750000Y-3056071D01*
X43607142Y-2984642D01*
X43535714Y-2841785D01*
X43535714Y-2270357D01*
X43607142Y-2127500D01*
X43750000Y-2056071D01*
X44035714Y-2056071D01*
X44178571Y-2127500D01*
X44250000Y-2270357D01*
X44250000Y-2413214D01*
X43535714Y-2556071D01*
X44892857Y-3056071D02*
X44892857Y-2056071D01*
X44892857Y-2341785D02*
X44964285Y-2198928D01*
X45035714Y-2127500D01*
X45178571Y-2056071D01*
X45321428Y-2056071D01*
X28000000Y-5471071D02*
X28000000Y-3971071D01*
X28357142Y-3971071D01*
X28571428Y-4042500D01*
X28714285Y-4185357D01*
X28785714Y-4328214D01*
X28857142Y-4613928D01*
X28857142Y-4828214D01*
X28785714Y-5113928D01*
X28714285Y-5256785D01*
X28571428Y-5399642D01*
X28357142Y-5471071D01*
X28000000Y-5471071D01*
X30142857Y-5471071D02*
X30142857Y-4685357D01*
X30071428Y-4542500D01*
X29928571Y-4471071D01*
X29642857Y-4471071D01*
X29500000Y-4542500D01*
X30142857Y-5399642D02*
X30000000Y-5471071D01*
X29642857Y-5471071D01*
X29500000Y-5399642D01*
X29428571Y-5256785D01*
X29428571Y-5113928D01*
X29500000Y-4971071D01*
X29642857Y-4899642D01*
X30000000Y-4899642D01*
X30142857Y-4828214D01*
X30714285Y-4471071D02*
X31071428Y-5471071D01*
X31428571Y-4471071D01*
X32000000Y-5471071D02*
X32000000Y-4471071D01*
X32000000Y-3971071D02*
X31928571Y-4042500D01*
X32000000Y-4113928D01*
X32071428Y-4042500D01*
X32000000Y-3971071D01*
X32000000Y-4113928D01*
X33357142Y-5471071D02*
X33357142Y-3971071D01*
X33357142Y-5399642D02*
X33214285Y-5471071D01*
X32928571Y-5471071D01*
X32785714Y-5399642D01*
X32714285Y-5328214D01*
X32642857Y-5185357D01*
X32642857Y-4756785D01*
X32714285Y-4613928D01*
X32785714Y-4542500D01*
X32928571Y-4471071D01*
X33214285Y-4471071D01*
X33357142Y-4542500D01*
X35214285Y-4685357D02*
X35714285Y-4685357D01*
X35928571Y-5471071D02*
X35214285Y-5471071D01*
X35214285Y-3971071D01*
X35928571Y-3971071D01*
X36571428Y-5328214D02*
X36642857Y-5399642D01*
X36571428Y-5471071D01*
X36500000Y-5399642D01*
X36571428Y-5328214D01*
X36571428Y-5471071D01*
X38428571Y-5471071D02*
X38428571Y-3971071D01*
X39000000Y-3971071D01*
X39142857Y-4042500D01*
X39214285Y-4113928D01*
X39285714Y-4256785D01*
X39285714Y-4471071D01*
X39214285Y-4613928D01*
X39142857Y-4685357D01*
X39000000Y-4756785D01*
X38428571Y-4756785D01*
X40142857Y-5471071D02*
X40000000Y-5399642D01*
X39928571Y-5328214D01*
X39857142Y-5185357D01*
X39857142Y-4756785D01*
X39928571Y-4613928D01*
X40000000Y-4542500D01*
X40142857Y-4471071D01*
X40357142Y-4471071D01*
X40500000Y-4542500D01*
X40571428Y-4613928D01*
X40642857Y-4756785D01*
X40642857Y-5185357D01*
X40571428Y-5328214D01*
X40500000Y-5399642D01*
X40357142Y-5471071D01*
X40142857Y-5471071D01*
X41142857Y-4471071D02*
X41428571Y-5471071D01*
X41714285Y-4756785D01*
X42000000Y-5471071D01*
X42285714Y-4471071D01*
X43428571Y-5399642D02*
X43285714Y-5471071D01*
X43000000Y-5471071D01*
X42857142Y-5399642D01*
X42785714Y-5256785D01*
X42785714Y-4685357D01*
X42857142Y-4542500D01*
X43000000Y-4471071D01*
X43285714Y-4471071D01*
X43428571Y-4542500D01*
X43500000Y-4685357D01*
X43500000Y-4828214D01*
X42785714Y-4971071D01*
X44357142Y-5471071D02*
X44214285Y-5399642D01*
X44142857Y-5256785D01*
X44142857Y-3971071D01*
X45142857Y-5471071D02*
X45000000Y-5399642D01*
X44928571Y-5256785D01*
X44928571Y-3971071D01*
X31464285Y-6386071D02*
X31964285Y-7886071D01*
X32464285Y-6386071D01*
X33535714Y-7814642D02*
X33392857Y-7886071D01*
X33107142Y-7886071D01*
X32964285Y-7814642D01*
X32892857Y-7671785D01*
X32892857Y-7100357D01*
X32964285Y-6957500D01*
X33107142Y-6886071D01*
X33392857Y-6886071D01*
X33535714Y-6957500D01*
X33607142Y-7100357D01*
X33607142Y-7243214D01*
X32892857Y-7386071D01*
X34250000Y-7886071D02*
X34250000Y-6886071D01*
X34250000Y-7171785D02*
X34321428Y-7028928D01*
X34392857Y-6957500D01*
X34535714Y-6886071D01*
X34678571Y-6886071D01*
X35178571Y-7743214D02*
X35250000Y-7814642D01*
X35178571Y-7886071D01*
X35107142Y-7814642D01*
X35178571Y-7743214D01*
X35178571Y-7886071D01*
X36964285Y-6528928D02*
X37035714Y-6457500D01*
X37178571Y-6386071D01*
X37535714Y-6386071D01*
X37678571Y-6457500D01*
X37750000Y-6528928D01*
X37821428Y-6671785D01*
X37821428Y-6814642D01*
X37750000Y-7028928D01*
X36892857Y-7886071D01*
X37821428Y-7886071D01*
X38464285Y-7743214D02*
X38535714Y-7814642D01*
X38464285Y-7886071D01*
X38392857Y-7814642D01*
X38464285Y-7743214D01*
X38464285Y-7886071D01*
X39464285Y-6386071D02*
X39607142Y-6386071D01*
X39750000Y-6457500D01*
X39821428Y-6528928D01*
X39892857Y-6671785D01*
X39964285Y-6957500D01*
X39964285Y-7314642D01*
X39892857Y-7600357D01*
X39821428Y-7743214D01*
X39750000Y-7814642D01*
X39607142Y-7886071D01*
X39464285Y-7886071D01*
X39321428Y-7814642D01*
X39250000Y-7743214D01*
X39178571Y-7600357D01*
X39107142Y-7314642D01*
X39107142Y-6957500D01*
X39178571Y-6671785D01*
X39250000Y-6528928D01*
X39321428Y-6457500D01*
X39464285Y-6386071D01*
X40892857Y-6386071D02*
X41035714Y-6386071D01*
X41178571Y-6457500D01*
X41250000Y-6528928D01*
X41321428Y-6671785D01*
X41392857Y-6957500D01*
X41392857Y-7314642D01*
X41321428Y-7600357D01*
X41250000Y-7743214D01*
X41178571Y-7814642D01*
X41035714Y-7886071D01*
X40892857Y-7886071D01*
X40750000Y-7814642D01*
X40678571Y-7743214D01*
X40607142Y-7600357D01*
X40535714Y-7314642D01*
X40535714Y-6957500D01*
X40607142Y-6671785D01*
X40678571Y-6528928D01*
X40750000Y-6457500D01*
X40892857Y-6386071D01*
X29857142Y-8801071D02*
X30000000Y-8801071D01*
X30142857Y-8872500D01*
X30214285Y-8943928D01*
X30285714Y-9086785D01*
X30357142Y-9372500D01*
X30357142Y-9729642D01*
X30285714Y-10015357D01*
X30214285Y-10158214D01*
X30142857Y-10229642D01*
X30000000Y-10301071D01*
X29857142Y-10301071D01*
X29714285Y-10229642D01*
X29642857Y-10158214D01*
X29571428Y-10015357D01*
X29500000Y-9729642D01*
X29500000Y-9372500D01*
X29571428Y-9086785D01*
X29642857Y-8943928D01*
X29714285Y-8872500D01*
X29857142Y-8801071D01*
X31214285Y-9443928D02*
X31071428Y-9372500D01*
X31000000Y-9301071D01*
X30928571Y-9158214D01*
X30928571Y-9086785D01*
X31000000Y-8943928D01*
X31071428Y-8872500D01*
X31214285Y-8801071D01*
X31500000Y-8801071D01*
X31642857Y-8872500D01*
X31714285Y-8943928D01*
X31785714Y-9086785D01*
X31785714Y-9158214D01*
X31714285Y-9301071D01*
X31642857Y-9372500D01*
X31500000Y-9443928D01*
X31214285Y-9443928D01*
X31071428Y-9515357D01*
X31000000Y-9586785D01*
X30928571Y-9729642D01*
X30928571Y-10015357D01*
X31000000Y-10158214D01*
X31071428Y-10229642D01*
X31214285Y-10301071D01*
X31500000Y-10301071D01*
X31642857Y-10229642D01*
X31714285Y-10158214D01*
X31785714Y-10015357D01*
X31785714Y-9729642D01*
X31714285Y-9586785D01*
X31642857Y-9515357D01*
X31500000Y-9443928D01*
X33500000Y-8729642D02*
X32214285Y-10658214D01*
X34285714Y-8801071D02*
X34428571Y-8801071D01*
X34571428Y-8872500D01*
X34642857Y-8943928D01*
X34714285Y-9086785D01*
X34785714Y-9372500D01*
X34785714Y-9729642D01*
X34714285Y-10015357D01*
X34642857Y-10158214D01*
X34571428Y-10229642D01*
X34428571Y-10301071D01*
X34285714Y-10301071D01*
X34142857Y-10229642D01*
X34071428Y-10158214D01*
X34000000Y-10015357D01*
X33928571Y-9729642D01*
X33928571Y-9372500D01*
X34000000Y-9086785D01*
X34071428Y-8943928D01*
X34142857Y-8872500D01*
X34285714Y-8801071D01*
X36214285Y-10301071D02*
X35357142Y-10301071D01*
X35785714Y-10301071D02*
X35785714Y-8801071D01*
X35642857Y-9015357D01*
X35500000Y-9158214D01*
X35357142Y-9229642D01*
X37928571Y-8729642D02*
X36642857Y-10658214D01*
X38357142Y-8943928D02*
X38428571Y-8872500D01*
X38571428Y-8801071D01*
X38928571Y-8801071D01*
X39071428Y-8872500D01*
X39142857Y-8943928D01*
X39214285Y-9086785D01*
X39214285Y-9229642D01*
X39142857Y-9443928D01*
X38285714Y-10301071D01*
X39214285Y-10301071D01*
X40142857Y-8801071D02*
X40285714Y-8801071D01*
X40428571Y-8872500D01*
X40500000Y-8943928D01*
X40571428Y-9086785D01*
X40642857Y-9372500D01*
X40642857Y-9729642D01*
X40571428Y-10015357D01*
X40500000Y-10158214D01*
X40428571Y-10229642D01*
X40285714Y-10301071D01*
X40142857Y-10301071D01*
X40000000Y-10229642D01*
X39928571Y-10158214D01*
X39857142Y-10015357D01*
X39785714Y-9729642D01*
X39785714Y-9372500D01*
X39857142Y-9086785D01*
X39928571Y-8943928D01*
X40000000Y-8872500D01*
X40142857Y-8801071D01*
X41214285Y-8943928D02*
X41285714Y-8872500D01*
X41428571Y-8801071D01*
X41785714Y-8801071D01*
X41928571Y-8872500D01*
X42000000Y-8943928D01*
X42071428Y-9086785D01*
X42071428Y-9229642D01*
X42000000Y-9443928D01*
X41142857Y-10301071D01*
X42071428Y-10301071D01*
X42571428Y-8801071D02*
X43500000Y-8801071D01*
X43000000Y-9372500D01*
X43214285Y-9372500D01*
X43357142Y-9443928D01*
X43428571Y-9515357D01*
X43500000Y-9658214D01*
X43500000Y-10015357D01*
X43428571Y-10158214D01*
X43357142Y-10229642D01*
X43214285Y-10301071D01*
X42785714Y-10301071D01*
X42642857Y-10229642D01*
X42571428Y-10158214D01*
D11*
X0Y0D02*
X70000000Y0D01*
X70000000Y0D02*
X70000000Y-50000000D01*
X70000000Y-50000000D02*
X0Y-50000000D01*
X0Y-50000000D02*
X0Y0D01*
D12*
%TO.C,U1*%
X16238095Y-25452380D02*
X16238095Y-26261904D01*
X16285714Y-26357142D01*
X16333333Y-26404761D01*
X16428571Y-26452380D01*
X16619047Y-26452380D01*
X16714285Y-26404761D01*
X16761904Y-26357142D01*
X16809523Y-26261904D01*
X16809523Y-25452380D01*
X17809523Y-26452380D02*
X17238095Y-26452380D01*
X17523809Y-26452380D02*
X17523809Y-25452380D01*
X17428571Y-25595238D01*
X17333333Y-25690476D01*
X17238095Y-25738095D01*
%TO.C,J1*%
X7256666Y-9822380D02*
X7256666Y-10536666D01*
X7209047Y-10679523D01*
X7113809Y-10774761D01*
X6970952Y-10822380D01*
X6875714Y-10822380D01*
X8256666Y-10822380D02*
X7685238Y-10822380D01*
X7970952Y-10822380D02*
X7970952Y-9822380D01*
X7875714Y-9965238D01*
X7780476Y-10060476D01*
X7685238Y-10108095D01*
%TO.C,J2*%
X56816666Y-9822380D02*
X56816666Y-10536666D01*
X56769047Y-10679523D01*
X56673809Y-10774761D01*
X56530952Y-10822380D01*
X56435714Y-10822380D01*
X57245238Y-9917619D02*
X57292857Y-9870000D01*
X57388095Y-9822380D01*
X57626190Y-9822380D01*
X57721428Y-9870000D01*
X57769047Y-9917619D01*
X57816666Y-10012857D01*
X57816666Y-10108095D01*
X57769047Y-10250952D01*
X57197619Y-10822380D01*
X57816666Y-10822380D01*
%TO.C,R1*%
X31583333Y-43462380D02*
X31250000Y-42986190D01*
X31011904Y-43462380D02*
X31011904Y-42462380D01*
X31392857Y-42462380D01*
X31488095Y-42510000D01*
X31535714Y-42557619D01*
X31583333Y-42652857D01*
X31583333Y-42795714D01*
X31535714Y-42890952D01*
X31488095Y-42938571D01*
X31392857Y-42986190D01*
X31011904Y-42986190D01*
X32535714Y-43462380D02*
X31964285Y-43462380D01*
X32250000Y-43462380D02*
X32250000Y-42462380D01*
X32154761Y-42605238D01*
X32059523Y-42700476D01*
X31964285Y-42748095D01*
%TO.C,R2*%
X56983333Y-40922380D02*
X56650000Y-40446190D01*
X56411904Y-40922380D02*
X56411904Y-39922380D01*
X56792857Y-39922380D01*
X56888095Y-39970000D01*
X56935714Y-40017619D01*
X56983333Y-40112857D01*
X56983333Y-40255714D01*
X56935714Y-40350952D01*
X56888095Y-40398571D01*
X56792857Y-40446190D01*
X56411904Y-40446190D01*
X57364285Y-40017619D02*
X57411904Y-39970000D01*
X57507142Y-39922380D01*
X57745238Y-39922380D01*
X57840476Y-39970000D01*
X57888095Y-40017619D01*
X57935714Y-40112857D01*
X57935714Y-40208095D01*
X57888095Y-40350952D01*
X57316666Y-40922380D01*
X57935714Y-40922380D01*
%TO.C,Q2*%
X52904761Y-19547619D02*
X52809523Y-19500000D01*
X52714285Y-19404761D01*
X52571428Y-19261904D01*
X52476190Y-19214285D01*
X52380952Y-19214285D01*
X52428571Y-19452380D02*
X52333333Y-19404761D01*
X52238095Y-19309523D01*
X52190476Y-19119047D01*
X52190476Y-18785714D01*
X52238095Y-18595238D01*
X52333333Y-18500000D01*
X52428571Y-18452380D01*
X52619047Y-18452380D01*
X52714285Y-18500000D01*
X52809523Y-18595238D01*
X52857142Y-18785714D01*
X52857142Y-19119047D01*
X52809523Y-19309523D01*
X52714285Y-19404761D01*
X52619047Y-19452380D01*
X52428571Y-19452380D01*
X53238095Y-18547619D02*
X53285714Y-18500000D01*
X53380952Y-18452380D01*
X53619047Y-18452380D01*
X53714285Y-18500000D01*
X53761904Y-18547619D01*
X53809523Y-18642857D01*
X53809523Y-18738095D01*
X53761904Y-18880952D01*
X53190476Y-19452380D01*
X53809523Y-19452380D01*
%TO.C,D1*%
X48261904Y-39822380D02*
X48261904Y-38822380D01*
X48500000Y-38822380D01*
X48642857Y-38870000D01*
X48738095Y-38965238D01*
X48785714Y-39060476D01*
X48833333Y-39250952D01*
X48833333Y-39393809D01*
X48785714Y-39584285D01*
X48738095Y-39679523D01*
X48642857Y-39774761D01*
X48500000Y-39822380D01*
X48261904Y-39822380D01*
X49785714Y-39822380D02*
X49214285Y-39822380D01*
X49500000Y-39822380D02*
X49500000Y-38822380D01*
X49404761Y-38965238D01*
X49309523Y-39060476D01*
X49214285Y-39108095D01*
%TO.C,U2*%
X23622095Y-17740380D02*
X23622095Y-18549904D01*
X23669714Y-18645142D01*
X23717333Y-18692761D01*
X23812571Y-18740380D01*
X24003047Y-18740380D01*
X24098285Y-18692761D01*
X24145904Y-18645142D01*
X24193523Y-18549904D01*
X24193523Y-17740380D01*
X24622095Y-17835619D02*
X24669714Y-17788000D01*
X24764952Y-17740380D01*
X25003047Y-17740380D01*
X25098285Y-17788000D01*
X25145904Y-17835619D01*
X25193523Y-17930857D01*
X25193523Y-18026095D01*
X25145904Y-18168952D01*
X24574476Y-18740380D01*
X25193523Y-18740380D01*
%TO.C,Q1*%
X53904761Y-28047619D02*
X53809523Y-28000000D01*
X53714285Y-27904761D01*
X53571428Y-27761904D01*
X53476190Y-27714285D01*
X53380952Y-27714285D01*
X53428571Y-27952380D02*
X53333333Y-27904761D01*
X53238095Y-27809523D01*
X53190476Y-27619047D01*
X53190476Y-27285714D01*
X53238095Y-27095238D01*
X53333333Y-27000000D01*
X53428571Y-26952380D01*
X53619047Y-26952380D01*
X53714285Y-27000000D01*
X53809523Y-27095238D01*
X53857142Y-27285714D01*
X53857142Y-27619047D01*
X53809523Y-27809523D01*
X53714285Y-27904761D01*
X53619047Y-27952380D01*
X53428571Y-27952380D01*
X54809523Y-27952380D02*
X54238095Y-27952380D01*
X54523809Y-27952380D02*
X54523809Y-26952380D01*
X54428571Y-27095238D01*
X54333333Y-27190476D01*
X54238095Y-27238095D01*
D13*
%TO.C,U1*%
X15820000Y-25930000D02*
X15820000Y-22330000D01*
X15808478Y-22291522D02*
G75*
G03*
X11370000Y-24130000I-1838478J-1838478D01*
G01*
X11369999Y-24130000D02*
G75*
G03*
X15808478Y-25968478I2600001J0D01*
G01*
%TO.C,J1*%
X8920000Y-13970000D02*
X8920000Y-16570000D01*
X6260000Y-12700000D02*
X6260000Y-11370000D01*
X6260000Y-16570000D02*
X8920000Y-16570000D01*
X6260000Y-13970000D02*
X6260000Y-16570000D01*
X6260000Y-13970000D02*
X8920000Y-13970000D01*
X6260000Y-11370000D02*
X7590000Y-11370000D01*
%TO.C,J2*%
X55820000Y-16570000D02*
X58480000Y-16570000D01*
X55820000Y-11370000D02*
X57150000Y-11370000D01*
X55820000Y-13970000D02*
X55820000Y-16570000D01*
X55820000Y-12700000D02*
X55820000Y-11370000D01*
X58480000Y-13970000D02*
X58480000Y-16570000D01*
X55820000Y-13970000D02*
X58480000Y-13970000D01*
%TO.C,R1*%
X28480000Y-39270000D02*
X28480000Y-42010000D01*
X35020000Y-42010000D02*
X35020000Y-39270000D01*
X27710000Y-40640000D02*
X28480000Y-40640000D01*
X35790000Y-40640000D02*
X35020000Y-40640000D01*
X35020000Y-39270000D02*
X28480000Y-39270000D01*
X28480000Y-42010000D02*
X35020000Y-42010000D01*
%TO.C,R2*%
X61190000Y-38100000D02*
X60420000Y-38100000D01*
X53110000Y-38100000D02*
X53880000Y-38100000D01*
X53880000Y-39470000D02*
X60420000Y-39470000D01*
X53880000Y-36730000D02*
X53880000Y-39470000D01*
X60420000Y-39470000D02*
X60420000Y-36730000D01*
X60420000Y-36730000D02*
X53880000Y-36730000D01*
%TO.C,Q2*%
X59730000Y-24860000D02*
X49490000Y-24860000D01*
X59730000Y-23350000D02*
X49490000Y-23350000D01*
X49490000Y-24860000D02*
X49490000Y-20219000D01*
X59730000Y-24860000D02*
X59730000Y-20219000D01*
X56460000Y-24860000D02*
X56460000Y-23350000D01*
X59730000Y-20219000D02*
X49490000Y-20219000D01*
X52759000Y-24860000D02*
X52759000Y-23350000D01*
%TO.C,D1*%
X45995000Y-36810000D02*
X42905000Y-36810000D01*
X42905170Y-36810000D02*
G75*
G03*
X44450462Y-42360000I1544830J-2560000D01*
G01*
X44449538Y-42360000D02*
G75*
G03*
X45994830Y-36810000I462J2990000D01*
G01*
X46950000Y-39370000D02*
G75*
G03*
X46950000Y-39370000I-2500000J0D01*
G01*
D14*
%TO.C,U2*%
X46990000Y-33782000D02*
X22352000Y-33782000D01*
D15*
X22860000Y-21590000D02*
X22860000Y-24130000D01*
D14*
X46990000Y-19558000D02*
X46990000Y-33782000D01*
D15*
X22860000Y-31750000D02*
X27940000Y-31750000D01*
D14*
X22352000Y-33782000D02*
X22352000Y-19558000D01*
X22352000Y-19558000D02*
X46990000Y-19558000D01*
D15*
X22860000Y-24130000D02*
X22860000Y-31750000D01*
X27940000Y-21590000D02*
X25400000Y-21590000D01*
X25400000Y-21590000D02*
X22860000Y-21590000D01*
X27940000Y-31750000D02*
X27940000Y-21590000D01*
D13*
%TO.C,Q1*%
X52810000Y-33251115D02*
X56410000Y-33251115D01*
X54610000Y-28801114D02*
G75*
G03*
X52771522Y-33239593I0J-2600001D01*
G01*
X56448478Y-33239593D02*
G75*
G03*
X54610000Y-28801115I-1838478J1838478D01*
G01*
%TD*%
%LPC*%
D16*
%TO.C,REF\u002A\u002A*%
X3000000Y-3000000D03*
%TD*%
%TO.C,REF\u002A\u002A*%
X3000000Y-47000000D03*
%TD*%
%TO.C,REF\u002A\u002A*%
X67000000Y-47000000D03*
%TD*%
D17*
%TO.C,U1*%
X13970000Y-25400000D03*
D18*
X13970000Y-24130000D03*
X13970000Y-22860000D03*
%TD*%
D19*
%TO.C,J1*%
X7590000Y-12700000D03*
D20*
X7590000Y-15240000D03*
%TD*%
D19*
%TO.C,J2*%
X57150000Y-12700000D03*
D20*
X57150000Y-15240000D03*
%TD*%
D21*
%TO.C,R1*%
X36830000Y-40640000D03*
D22*
X26670000Y-40640000D03*
%TD*%
D21*
%TO.C,R2*%
X62230000Y-38100000D03*
D22*
X52070000Y-38100000D03*
%TD*%
D23*
%TO.C,Q2*%
X57150000Y-21590000D03*
D24*
X54610000Y-21590000D03*
X52070000Y-21590000D03*
%TD*%
D25*
%TO.C,D1*%
X44450000Y-38100000D03*
D26*
X44450000Y-40640000D03*
%TD*%
D27*
%TO.C,U2*%
X26670000Y-22860000D03*
D28*
X24130000Y-22860000D03*
X26670000Y-25400000D03*
X24130000Y-25400000D03*
X26670000Y-27940000D03*
X24130000Y-27940000D03*
X26670000Y-30480000D03*
X24130000Y-30480000D03*
%TD*%
D29*
%TO.C,Q1*%
X53340000Y-31401115D03*
D30*
X54610000Y-31401115D03*
X55880000Y-31401115D03*
%TD*%
D16*
%TO.C,REF\u002A\u002A*%
X67000000Y-3000000D03*
%TD*%
M02*
