%TF.GenerationSoftware,KiCad,Pcbnew,6.0.11-2627ca5db0~126~ubuntu20.04.1*%
%TF.CreationDate,2023-06-27T09:44:52-05:00*%
%TF.ProjectId,runLimiter,72756e4c-696d-4697-9465-722e6b696361,01*%
%TF.SameCoordinates,Original*%
%TF.FileFunction,Legend,Top*%
%TF.FilePolarity,Positive*%
%FSLAX46Y46*%
G04 Gerber Fmt 4.6, Leading zero omitted, Abs format (unit mm)*
G04 Created by KiCad (PCBNEW 6.0.11-2627ca5db0~126~ubuntu20.04.1) date 2023-06-27 09:44:52*
%MOMM*%
%LPD*%
G01*
G04 APERTURE LIST*
%ADD10C,0.150000*%
%ADD11C,0.152400*%
%ADD12C,0.254000*%
%ADD13C,0.120000*%
%ADD14R,1.727200X1.727200*%
%ADD15O,1.727200X1.727200*%
%ADD16C,6.400000*%
%ADD17C,1.600000*%
%ADD18O,1.600000X1.600000*%
%ADD19R,1.800000X1.800000*%
%ADD20C,1.800000*%
%ADD21R,1.700000X1.700000*%
%ADD22O,1.700000X1.700000*%
%ADD23R,1.500000X1.050000*%
%ADD24O,1.500000X1.050000*%
%ADD25R,1.050000X1.500000*%
%ADD26O,1.050000X1.500000*%
G04 APERTURE END LIST*
D10*
%TO.C,U2*%
X108712095Y-76160380D02*
X108712095Y-76969904D01*
X108759714Y-77065142D01*
X108807333Y-77112761D01*
X108902571Y-77160380D01*
X109093047Y-77160380D01*
X109188285Y-77112761D01*
X109235904Y-77065142D01*
X109283523Y-76969904D01*
X109283523Y-76160380D01*
X109712095Y-76255619D02*
X109759714Y-76208000D01*
X109854952Y-76160380D01*
X110093047Y-76160380D01*
X110188285Y-76208000D01*
X110235904Y-76255619D01*
X110283523Y-76350857D01*
X110283523Y-76446095D01*
X110235904Y-76588952D01*
X109664476Y-77160380D01*
X110283523Y-77160380D01*
%TO.C,R2*%
X142073333Y-99342380D02*
X141740000Y-98866190D01*
X141501904Y-99342380D02*
X141501904Y-98342380D01*
X141882857Y-98342380D01*
X141978095Y-98390000D01*
X142025714Y-98437619D01*
X142073333Y-98532857D01*
X142073333Y-98675714D01*
X142025714Y-98770952D01*
X141978095Y-98818571D01*
X141882857Y-98866190D01*
X141501904Y-98866190D01*
X142454285Y-98437619D02*
X142501904Y-98390000D01*
X142597142Y-98342380D01*
X142835238Y-98342380D01*
X142930476Y-98390000D01*
X142978095Y-98437619D01*
X143025714Y-98532857D01*
X143025714Y-98628095D01*
X142978095Y-98770952D01*
X142406666Y-99342380D01*
X143025714Y-99342380D01*
%TO.C,R1*%
X116673333Y-101882380D02*
X116340000Y-101406190D01*
X116101904Y-101882380D02*
X116101904Y-100882380D01*
X116482857Y-100882380D01*
X116578095Y-100930000D01*
X116625714Y-100977619D01*
X116673333Y-101072857D01*
X116673333Y-101215714D01*
X116625714Y-101310952D01*
X116578095Y-101358571D01*
X116482857Y-101406190D01*
X116101904Y-101406190D01*
X117625714Y-101882380D02*
X117054285Y-101882380D01*
X117340000Y-101882380D02*
X117340000Y-100882380D01*
X117244761Y-101025238D01*
X117149523Y-101120476D01*
X117054285Y-101168095D01*
%TO.C,D1*%
X133952380Y-98528095D02*
X132952380Y-98528095D01*
X132952380Y-98290000D01*
X133000000Y-98147142D01*
X133095238Y-98051904D01*
X133190476Y-98004285D01*
X133380952Y-97956666D01*
X133523809Y-97956666D01*
X133714285Y-98004285D01*
X133809523Y-98051904D01*
X133904761Y-98147142D01*
X133952380Y-98290000D01*
X133952380Y-98528095D01*
X133952380Y-97004285D02*
X133952380Y-97575714D01*
X133952380Y-97290000D02*
X132952380Y-97290000D01*
X133095238Y-97385238D01*
X133190476Y-97480476D01*
X133238095Y-97575714D01*
%TO.C,J2*%
X139366666Y-68242380D02*
X139366666Y-68956666D01*
X139319047Y-69099523D01*
X139223809Y-69194761D01*
X139080952Y-69242380D01*
X138985714Y-69242380D01*
X139795238Y-68337619D02*
X139842857Y-68290000D01*
X139938095Y-68242380D01*
X140176190Y-68242380D01*
X140271428Y-68290000D01*
X140319047Y-68337619D01*
X140366666Y-68432857D01*
X140366666Y-68528095D01*
X140319047Y-68670952D01*
X139747619Y-69242380D01*
X140366666Y-69242380D01*
%TO.C,J1*%
X92346666Y-68242380D02*
X92346666Y-68956666D01*
X92299047Y-69099523D01*
X92203809Y-69194761D01*
X92060952Y-69242380D01*
X91965714Y-69242380D01*
X93346666Y-69242380D02*
X92775238Y-69242380D01*
X93060952Y-69242380D02*
X93060952Y-68242380D01*
X92965714Y-68385238D01*
X92870476Y-68480476D01*
X92775238Y-68528095D01*
%TO.C,U1*%
X94952380Y-83311904D02*
X95761904Y-83311904D01*
X95857142Y-83264285D01*
X95904761Y-83216666D01*
X95952380Y-83121428D01*
X95952380Y-82930952D01*
X95904761Y-82835714D01*
X95857142Y-82788095D01*
X95761904Y-82740476D01*
X94952380Y-82740476D01*
X95952380Y-81740476D02*
X95952380Y-82311904D01*
X95952380Y-82026190D02*
X94952380Y-82026190D01*
X95095238Y-82121428D01*
X95190476Y-82216666D01*
X95238095Y-82311904D01*
%TO.C,Q1*%
X140874761Y-83347619D02*
X140779523Y-83300000D01*
X140684285Y-83204761D01*
X140541428Y-83061904D01*
X140446190Y-83014285D01*
X140350952Y-83014285D01*
X140398571Y-83252380D02*
X140303333Y-83204761D01*
X140208095Y-83109523D01*
X140160476Y-82919047D01*
X140160476Y-82585714D01*
X140208095Y-82395238D01*
X140303333Y-82300000D01*
X140398571Y-82252380D01*
X140589047Y-82252380D01*
X140684285Y-82300000D01*
X140779523Y-82395238D01*
X140827142Y-82585714D01*
X140827142Y-82919047D01*
X140779523Y-83109523D01*
X140684285Y-83204761D01*
X140589047Y-83252380D01*
X140398571Y-83252380D01*
X141779523Y-83252380D02*
X141208095Y-83252380D01*
X141493809Y-83252380D02*
X141493809Y-82252380D01*
X141398571Y-82395238D01*
X141303333Y-82490476D01*
X141208095Y-82538095D01*
D11*
%TO.C,U2*%
X110490000Y-80010000D02*
X107950000Y-80010000D01*
D12*
X132080000Y-77978000D02*
X132080000Y-92202000D01*
D11*
X113030000Y-80010000D02*
X110490000Y-80010000D01*
D12*
X132080000Y-92202000D02*
X107442000Y-92202000D01*
X107442000Y-77978000D02*
X132080000Y-77978000D01*
D11*
X107950000Y-90170000D02*
X113030000Y-90170000D01*
X107950000Y-80010000D02*
X107950000Y-82550000D01*
D12*
X107442000Y-92202000D02*
X107442000Y-77978000D01*
D11*
X107950000Y-82550000D02*
X107950000Y-90170000D01*
X113030000Y-90170000D02*
X113030000Y-80010000D01*
D13*
%TO.C,R2*%
X138200000Y-96520000D02*
X138970000Y-96520000D01*
X146280000Y-96520000D02*
X145510000Y-96520000D01*
X145510000Y-97890000D02*
X145510000Y-95150000D01*
X138970000Y-95150000D02*
X138970000Y-97890000D01*
X145510000Y-95150000D02*
X138970000Y-95150000D01*
X138970000Y-97890000D02*
X145510000Y-97890000D01*
%TO.C,R1*%
X112800000Y-99060000D02*
X113570000Y-99060000D01*
X120880000Y-99060000D02*
X120110000Y-99060000D01*
X120110000Y-100430000D02*
X120110000Y-97690000D01*
X113570000Y-97690000D02*
X113570000Y-100430000D01*
X120110000Y-97690000D02*
X113570000Y-97690000D01*
X113570000Y-100430000D02*
X120110000Y-100430000D01*
%TO.C,D1*%
X131085000Y-95230000D02*
X127995000Y-95230000D01*
X127995170Y-95230000D02*
G75*
G03*
X129540462Y-100780000I1544830J-2560000D01*
G01*
X129539538Y-100780000D02*
G75*
G03*
X131084830Y-95230000I462J2990000D01*
G01*
X132040000Y-97790000D02*
G75*
G03*
X132040000Y-97790000I-2500000J0D01*
G01*
%TO.C,J2*%
X138370000Y-71120000D02*
X138370000Y-69790000D01*
X138370000Y-74990000D02*
X141030000Y-74990000D01*
X138370000Y-72390000D02*
X138370000Y-74990000D01*
X138370000Y-72390000D02*
X141030000Y-72390000D01*
X138370000Y-69790000D02*
X139700000Y-69790000D01*
X141030000Y-72390000D02*
X141030000Y-74990000D01*
%TO.C,J1*%
X91350000Y-71120000D02*
X91350000Y-69790000D01*
X91350000Y-74990000D02*
X94010000Y-74990000D01*
X91350000Y-72390000D02*
X91350000Y-74990000D01*
X91350000Y-72390000D02*
X94010000Y-72390000D01*
X91350000Y-69790000D02*
X92680000Y-69790000D01*
X94010000Y-72390000D02*
X94010000Y-74990000D01*
%TO.C,U1*%
X100910000Y-84350000D02*
X100910000Y-80750000D01*
X100898478Y-80711522D02*
G75*
G03*
X96460000Y-82550000I-1838478J-1838478D01*
G01*
X96459999Y-82550000D02*
G75*
G03*
X100898478Y-84388478I2600001J0D01*
G01*
%TO.C,Q1*%
X139170000Y-88210000D02*
X142770000Y-88210000D01*
X142808478Y-88198478D02*
G75*
G03*
X140970000Y-83760000I-1838478J1838478D01*
G01*
X140970000Y-83759999D02*
G75*
G03*
X139131522Y-88198478I0J-2600001D01*
G01*
%TD*%
D14*
%TO.C,U2*%
X111760000Y-81280000D03*
D15*
X109220000Y-81280000D03*
X111760000Y-83820000D03*
X109220000Y-83820000D03*
X111760000Y-86360000D03*
X109220000Y-86360000D03*
X111760000Y-88900000D03*
X109220000Y-88900000D03*
%TD*%
%LPC*%
D16*
%TO.C,REF\u002A\u002A*%
X81280000Y-109220000D03*
%TD*%
%TO.C,REF\u002A\u002A*%
X160020000Y-109220000D03*
%TD*%
%TO.C,REF\u002A\u002A*%
X160020000Y-68580000D03*
%TD*%
%TO.C,REF\u002A\u002A*%
X81280000Y-68580000D03*
%TD*%
D14*
%TO.C,U2*%
X111760000Y-81280000D03*
D15*
X109220000Y-81280000D03*
X111760000Y-83820000D03*
X109220000Y-83820000D03*
X111760000Y-86360000D03*
X109220000Y-86360000D03*
X111760000Y-88900000D03*
X109220000Y-88900000D03*
%TD*%
D17*
%TO.C,R2*%
X147320000Y-96520000D03*
D18*
X137160000Y-96520000D03*
%TD*%
D17*
%TO.C,R1*%
X121920000Y-99060000D03*
D18*
X111760000Y-99060000D03*
%TD*%
D19*
%TO.C,D1*%
X129540000Y-96520000D03*
D20*
X129540000Y-99060000D03*
%TD*%
D21*
%TO.C,J2*%
X139700000Y-71120000D03*
D22*
X139700000Y-73660000D03*
%TD*%
D21*
%TO.C,J1*%
X92680000Y-71120000D03*
D22*
X92680000Y-73660000D03*
%TD*%
D23*
%TO.C,U1*%
X99060000Y-83820000D03*
D24*
X99060000Y-82550000D03*
X99060000Y-81280000D03*
%TD*%
D25*
%TO.C,Q1*%
X139700000Y-86360000D03*
D26*
X140970000Y-86360000D03*
X142240000Y-86360000D03*
%TD*%
M02*
